<svg width="120" height="120" viewBox="0 0 120 120" fill="none" xmlns="http://www.w3.org/2000/svg">
<path d="M28.0435 14.9994C28.0435 9.5966 32.4233 5.2168 37.8261 5.2168H69.1304C74.533 5.2168 78.913 9.5966 78.913 14.9994V97.8255C78.913 103.228 74.533 107.608 69.1304 107.608H37.8261C32.4233 107.608 28.0435 103.228 28.0435 97.8255V14.9994Z" fill="#FEFEFE"/>
<path fill-rule="evenodd" clip-rule="evenodd" d="M69.1304 9.12984H37.8261C34.5844 9.12984 31.9565 11.7577 31.9565 14.9994V97.8255C31.9565 101.067 34.5844 103.695 37.8261 103.695H69.1304C72.3724 103.695 75 101.067 75 97.8255V14.9994C75 11.7577 72.3724 9.12984 69.1304 9.12984ZM37.8261 5.2168C32.4233 5.2168 28.0435 9.5966 28.0435 14.9994V97.8255C28.0435 103.228 32.4233 107.608 37.8261 107.608H69.1304C74.533 107.608 78.913 103.228 78.913 97.8255V14.9994C78.913 9.5966 74.533 5.2168 69.1304 5.2168H37.8261Z" fill="#665CD1"/>
<path d="M41.7391 22.1732C41.7391 16.7704 46.1189 12.3906 51.5217 12.3906H82.8261C88.2287 12.3906 92.6087 16.7704 92.6087 22.1732V104.999C92.6087 110.402 88.2287 114.782 82.8261 114.782H51.5217C46.1189 114.782 41.7391 110.402 41.7391 104.999V22.1732Z" fill="#FEFEFE"/>
<path fill-rule="evenodd" clip-rule="evenodd" d="M82.8261 16.3037H51.5217C48.28 16.3037 45.6521 18.9315 45.6521 22.1732V104.999C45.6521 108.241 48.28 110.869 51.5217 110.869H82.8261C86.068 110.869 88.6956 108.241 88.6956 104.999V22.1732C88.6956 18.9315 86.068 16.3037 82.8261 16.3037ZM51.5217 12.3906C46.1189 12.3906 41.7391 16.7704 41.7391 22.1732V104.999C41.7391 110.402 46.1189 114.782 51.5217 114.782H82.8261C88.2287 114.782 92.6087 110.402 92.6087 104.999V22.1732C92.6087 16.7704 88.2287 12.3906 82.8261 12.3906H51.5217Z" fill="#665CD1"/>
<path d="M55.4348 16.3047H78.913C78.913 17.7454 77.745 18.9134 76.3043 18.9134H58.0435C56.6028 18.9134 55.4348 17.7454 55.4348 16.3047Z" fill="#665CD1"/>
<path d="M57.3913 35.2177C57.3913 33.0566 59.1433 31.3047 61.3044 31.3047H69.5361C69.9013 31.3047 70.2496 31.4574 70.4961 31.7259L77.2644 39.0824C77.4855 39.3232 77.6087 39.6384 77.6087 39.9656V57.3916C77.6087 59.5528 75.857 61.3047 73.6957 61.3047H61.3044C59.1433 61.3047 57.3913 59.5528 57.3913 57.3916V35.2177Z" fill="#FEFEFE"/>
<path fill-rule="evenodd" clip-rule="evenodd" d="M61.3043 27.3906H69.5361C70.9956 27.3906 72.388 28.0017 73.3761 29.0755L80.1437 36.4321C81.03 37.3952 81.5217 38.656 81.5217 39.9646V57.3906C81.5217 61.7128 78.0176 65.2167 73.6956 65.2167H61.3043C56.9821 65.2167 53.4782 61.7128 53.4782 57.3906V35.2167C53.4782 30.8945 56.9821 27.3906 61.3043 27.3906ZM61.3043 31.3037C59.1432 31.3037 57.3913 33.0556 57.3913 35.2167V57.3906C57.3913 59.5517 59.1432 61.3037 61.3043 61.3037H73.6956C75.8569 61.3037 77.6087 59.5517 77.6087 57.3906V39.9646C77.6087 39.6374 77.4854 39.3222 77.2643 39.0814L70.4961 31.7249C70.2495 31.4564 69.9013 31.3037 69.5361 31.3037H61.3043Z" fill="#665CD1"/>
<path fill-rule="evenodd" clip-rule="evenodd" d="M67.1739 36.5221V31.3047H71.0869V36.5221C71.0869 37.9628 72.255 39.1308 73.6956 39.1308H78.2608V43.0438H73.6956C70.0937 43.0438 67.1739 40.1239 67.1739 36.5221Z" fill="#665CD1"/>
<path d="M80.2174 84.1304C80.2174 83.0497 79.3415 82.1738 78.2608 82.1738C77.1802 82.1738 76.3043 83.0497 76.3043 84.1304V100.435C76.3043 101.515 77.1802 102.391 78.2608 102.391C79.3415 102.391 80.2174 101.515 80.2174 100.435V84.1304Z" fill="#665CD1"/>
<path d="M74.3478 90.0005C74.3478 88.9198 73.4719 88.0439 72.3913 88.0439C71.3106 88.0439 70.4348 88.9198 70.4348 90.0005V100.435C70.4348 101.516 71.3106 102.392 72.3913 102.392C73.4719 102.392 74.3478 101.516 74.3478 100.435V90.0005Z" fill="#665CD1"/>
<path d="M56.7392 90.0005C56.7392 88.9198 55.8632 88.0439 54.7826 88.0439C53.702 88.0439 52.8261 88.9198 52.8261 90.0005V100.435C52.8261 101.516 53.702 102.392 54.7826 102.392C55.8632 102.392 56.7392 101.516 56.7392 100.435V90.0005Z" fill="#665CD1"/>
<path d="M68.4783 88.0434C68.4783 86.9628 67.6024 86.0869 66.5217 86.0869C65.4411 86.0869 64.5652 86.9628 64.5652 88.0434V100.435C64.5652 101.515 65.4411 102.391 66.5217 102.391C67.6024 102.391 68.4783 101.515 68.4783 100.435V88.0434Z" fill="#665CD1"/>
<path d="M62.6087 95.2173C62.6087 94.1366 61.7328 93.2607 60.6522 93.2607C59.5716 93.2607 58.6957 94.1366 58.6957 95.2173V100.435C58.6957 101.515 59.5716 102.391 60.6522 102.391C61.7328 102.391 62.6087 101.515 62.6087 100.435V95.2173Z" fill="#665CD1"/>
<path fill-rule="evenodd" clip-rule="evenodd" d="M79.5649 71.7384C80.3139 72.5173 80.2896 73.756 79.5107 74.505L72.6648 81.088C71.7977 81.9217 70.4328 81.9408 69.5428 81.1315L67.5365 79.3073L60.9353 85.6443C60.0378 86.506 58.6159 86.4914 57.7361 85.6116L54.1303 82.0056C53.3662 81.2415 53.3663 80.0027 54.1304 79.2387C54.8944 78.4747 56.1331 78.4748 56.8971 79.2387L59.3756 81.717L65.9231 75.4316C66.7903 74.5992 68.154 74.5807 69.0435 75.3892L71.0491 77.2125L76.7984 71.6842C77.5773 70.9353 78.8159 70.9595 79.5649 71.7384Z" fill="#665CD1"/>
<path fill-rule="evenodd" clip-rule="evenodd" d="M36.0681 56.7306C35.572 57.5898 35.8664 58.6885 36.7256 59.1846C37.5849 59.6807 38.6836 59.3864 39.1797 58.527L41.2809 54.8877C41.9424 53.742 41.5498 52.2771 40.4041 51.6156L36.7648 49.5144C35.9055 49.0184 34.8068 49.3127 34.3107 50.172C33.8146 51.0312 34.109 52.13 34.9683 52.626L35.3095 52.8231C30.3743 53.4053 26.1354 57.0582 25.045 62.189C24.1227 66.5301 25.6908 70.8188 28.7749 73.571C29.5152 74.2317 30.6509 74.1671 31.3115 73.4269C31.9721 72.686 31.9075 71.5506 31.1673 70.8899C29.0057 68.9608 27.916 65.9647 28.5596 62.9359C29.3622 59.1587 32.6073 56.5279 36.2903 56.3455L36.0681 56.7306ZM44.9202 55.7907C44.18 55.1301 43.0443 55.1946 42.3837 55.9349C41.7231 56.6752 41.7877 57.8108 42.5279 58.4715C44.6895 60.4004 45.7792 63.3967 45.1355 66.4258C44.3327 70.2038 41.0857 72.8354 37.4013 73.016L37.6271 72.6247C38.1232 71.7658 37.8288 70.6669 36.9695 70.1706C36.1103 69.6749 35.0116 69.969 34.5155 70.8286L32.4143 74.4677C31.7528 75.6136 32.1453 77.0784 33.2911 77.7397L36.9304 79.841C37.7896 80.3373 38.8883 80.0425 39.3845 79.1836C39.8806 78.324 39.5862 77.2258 38.7269 76.7295L38.3942 76.5371C43.3257 75.9521 47.5604 72.3006 48.6501 67.1725C49.5725 62.8317 48.0044 58.543 44.9202 55.7907Z" fill="#665CD1"/>
<path fill-rule="evenodd" clip-rule="evenodd" d="M31.918 57.8516C32.9813 57.1046 34.2167 56.6061 35.5281 56.4184C35.5954 56.4088 35.6629 56.4 35.7306 56.392C35.7885 56.3852 35.8464 56.379 35.9046 56.3734C35.9099 56.3729 35.9152 56.3723 35.9205 56.3718C36.0433 56.3602 36.1666 56.3513 36.2904 56.3452L36.0681 56.7302C35.6364 57.4778 35.8033 58.4069 36.42 58.9623C36.512 59.0453 36.6141 59.1198 36.7256 59.1842C37.2646 59.4954 37.8977 59.4956 38.4173 59.2405C38.7261 59.0888 38.9948 58.847 39.1797 58.5267L41.2809 54.8873C41.7891 54.0071 41.6751 52.9384 41.0754 52.1904C41.053 52.1624 41.0299 52.1349 41.0061 52.1078C40.8381 51.9168 40.6367 51.7495 40.4042 51.6152L36.7648 49.5141C36.1725 49.1721 35.4665 49.2057 34.9225 49.541C34.6772 49.6922 34.4649 49.9046 34.3107 50.1716C33.8351 50.9954 34.086 52.0391 34.8645 52.5611C34.8982 52.5836 34.9327 52.6052 34.9683 52.6257L35.3096 52.8227C35.1438 52.8423 34.9788 52.8653 34.8147 52.8918C33.4918 53.1048 32.226 53.539 31.0659 54.1628C28.0856 55.7655 25.8035 58.6195 25.0451 62.1886C24.2133 66.1032 25.4068 69.9752 27.9111 72.7163C28.1298 72.9556 28.3586 73.1865 28.5969 73.4082C28.6556 73.463 28.715 73.5171 28.7749 73.5706C28.8346 73.6234 28.8969 73.6724 28.9612 73.7161C29.5944 74.1478 30.4322 74.1256 31.0403 73.6743C31.1329 73.6052 31.2201 73.5269 31.3005 73.4382C31.3042 73.4343 31.3078 73.4304 31.3115 73.4265C31.9721 72.6856 31.9076 71.5502 31.1673 70.8895C30.9137 70.6632 30.6749 70.4226 30.4519 70.1682C30.437 70.1513 30.4222 70.1343 30.4074 70.1174C28.7601 68.2104 27.9966 65.5854 28.5596 62.9355C29.015 60.7926 30.2565 59.0187 31.918 57.8516ZM30.2189 50.221C25.7754 52.2207 22.3092 56.2377 21.2175 61.3753C19.9913 67.1461 22.0814 72.8415 26.1695 76.4898C26.8715 77.1165 27.6853 77.5378 28.5375 77.7582C29.0194 79.1304 29.9759 80.3441 31.3346 81.128L34.9739 83.2293C37.7047 84.8063 41.1966 83.8704 42.7733 81.1398C43.1407 80.5032 43.3717 79.8256 43.4754 79.1402C47.9193 77.1406 51.3859 73.1232 52.4777 67.9854C53.7039 62.2149 51.6138 56.519 47.5257 52.8707C46.8244 52.2449 46.0114 51.8239 45.16 51.6034C44.6788 50.2282 43.7214 49.0121 42.3607 48.2264L38.7214 46.1252C35.9905 44.5486 32.4986 45.4843 30.9219 48.2151C30.5533 48.8536 30.3221 49.5336 30.2189 50.221ZM44.7422 55.6503C44.1096 55.2141 43.2698 55.2333 42.6594 55.6832L44.7422 55.6503ZM44.7422 55.6503C44.8037 55.6927 44.8631 55.7393 44.9203 55.7903C44.9796 55.8433 45.0384 55.8968 45.0967 55.9509C45.3356 56.1729 45.5649 56.4042 45.7842 56.6443C48.2884 59.3855 49.482 63.2576 48.6501 67.1721C47.892 70.7402 45.6111 73.5934 42.6322 75.1965C41.4703 75.8219 40.2021 76.2569 38.8768 76.4695C38.7167 76.4956 38.5558 76.5178 38.3942 76.5367L38.7269 76.7291C38.7651 76.7513 38.802 76.7741 38.8379 76.7982C39.6107 77.3219 39.8586 78.3621 39.3845 79.1832C39.2324 79.4467 39.0236 79.6567 38.7824 79.808C38.2371 80.1484 37.5262 80.185 36.9304 79.8406L33.2911 77.7393C33.0602 77.6063 32.8599 77.4406 32.6927 77.2508C32.6687 77.2241 32.6454 77.1961 32.6227 77.168C32.0205 76.42 31.9053 75.3491 32.4143 74.4674L34.5155 70.8282C34.7001 70.5087 34.968 70.2667 35.2759 70.1154C35.7959 69.8591 36.4299 69.8591 36.9696 70.1708C37.08 70.2341 37.1811 70.3078 37.2724 70.39C37.8915 70.945 38.0595 71.8756 37.6271 72.6243L37.4013 73.0156C37.5247 73.0097 37.6476 73.0006 37.7699 72.9895C37.7756 72.9889 37.7813 72.9882 37.787 72.9876C37.8484 72.9817 37.9095 72.9752 37.9706 72.968C38.0391 72.9602 38.1073 72.9511 38.1754 72.9413C39.4839 72.7528 40.7164 72.2545 41.7774 71.5091C43.4389 70.3417 44.6803 68.5678 45.1356 66.4254C45.6989 63.7743 44.9344 61.1483 43.2857 59.241C43.2716 59.2247 43.2575 59.2085 43.2433 59.1923C43.0203 58.9383 42.7815 58.6974 42.528 58.4711C41.7877 57.8104 41.7231 56.6748 42.3837 55.9345C42.3857 55.9323 42.3877 55.93 42.3898 55.9278L44.7422 55.6503ZM40.7627 62.3993C39.0163 63.5463 36.702 63.689 34.7691 62.5731C34.2999 62.3022 33.8837 61.9747 33.5241 61.6043C32.97 62.1798 32.565 62.9119 32.3872 63.7488C32.1446 64.8906 32.3647 66.0256 32.9299 66.9569C34.6767 65.8084 36.9922 65.665 38.9261 66.7815C39.3966 67.0534 39.8137 67.3815 40.1739 67.7532C40.7267 67.1787 41.1305 66.4476 41.308 65.6121C41.551 64.4684 41.3299 63.3315 40.7627 62.3993Z" fill="#FEFEFE"/>
<path d="M43.125 57.375L42.4386 57.6038C42.2102 57.6799 41.9687 57.5306 41.9346 57.2923C41.7787 56.2008 42.7033 55.2598 43.7974 55.3965L44.1009 55.4345C44.4406 55.4769 44.758 55.633 45 55.875L43.125 57.375Z" fill="#665CD1"/>
</svg>
