<svg width="120" height="120" viewBox="0 0 120 120" fill="none" xmlns="http://www.w3.org/2000/svg">
<path d="M46.3045 37.1733C46.3045 46.5381 38.7128 54.1298 29.348 54.1298C19.9832 54.1298 12.3915 46.5381 12.3915 37.1733C12.3915 27.8085 19.9832 20.2168 29.348 20.2168C38.7128 20.2168 46.3045 27.8085 46.3045 37.1733Z" fill="#FEFEFE"/>
<path fill-rule="evenodd" clip-rule="evenodd" d="M29.348 50.2168C36.5517 50.2168 42.3915 44.377 42.3915 37.1733C42.3915 29.9696 36.5517 24.1298 29.348 24.1298C22.1443 24.1298 16.3045 29.9696 16.3045 37.1733C16.3045 44.377 22.1443 50.2168 29.348 50.2168ZM29.348 54.1298C38.7128 54.1298 46.3045 46.5381 46.3045 37.1733C46.3045 27.8085 38.7128 20.2168 29.348 20.2168C19.9832 20.2168 12.3915 27.8085 12.3915 37.1733C12.3915 46.5381 19.9832 54.1298 29.348 54.1298Z" fill="#665CD1"/>
<path d="M29.1313 27.2227L26.7393 34.9396L19.0225 37.3312L26.7393 39.7232L29.1313 47.44L31.523 39.7232L39.2399 37.3312L31.523 34.9396L29.1313 27.2227Z" fill="#665CD1"/>
<path fill-rule="evenodd" clip-rule="evenodd" d="M44.122 47.3272C43.0534 45.4762 40.6866 44.8421 38.8357 45.9107C36.9848 46.9793 36.3507 49.3461 37.4192 51.197L55.1338 81.8798C55.426 82.3859 55.2526 83.0329 54.7465 83.325C54.4192 83.5142 54.0158 83.5142 53.6884 83.325L44.3008 77.9048C42.4498 76.8366 40.0831 77.4705 39.0145 79.3213C37.9458 81.1722 38.58 83.5389 40.4309 84.6079L62.2927 97.2294C62.9458 97.607 63.5594 98.0479 64.1625 98.5005C70.8628 103.531 80.185 104.386 87.8995 99.9326C98.2117 93.9783 101.745 80.7926 95.7908 70.4798L83.905 49.8928C82.8367 48.0419 80.47 47.4077 78.6191 48.4764C76.7676 49.545 76.1337 51.9118 77.2026 53.7627L83.56 64.7744C84.0178 65.5676 83.7458 66.5818 82.9528 67.0402C82.1597 67.4981 81.145 67.2261 80.6871 66.4331L73.5002 53.9849C72.4319 52.134 70.0652 51.4998 68.2143 52.5684C66.3634 53.6371 65.7289 56.0038 66.7978 57.8548L73.9847 70.3031C74.4426 71.0961 74.1706 72.1103 73.3776 72.5681C72.5839 73.0266 71.5697 72.7546 71.1119 71.9616L62.2664 56.6407C61.1978 54.7897 58.831 54.1556 56.9802 55.2242C55.1292 56.2928 54.495 58.6596 55.5636 60.5105L64.4091 75.8309C64.867 76.6246 64.5953 77.6387 63.802 78.0966C63.0087 78.555 61.9944 78.2831 61.5364 77.4894L44.122 47.3272Z" fill="#FEFEFE"/>
<path fill-rule="evenodd" clip-rule="evenodd" d="M46.4177 74.6083L34.0306 53.1532C31.8814 49.4307 33.1568 44.6707 36.8793 42.5215C40.6018 40.3724 45.3618 41.6478 47.5109 45.3703L52.5485 54.0955C53.1793 53.1978 54.011 52.4198 55.0237 51.835C57.7094 50.2844 60.9352 50.5165 63.3309 52.1641C63.9925 50.9602 64.9812 49.9163 66.2577 49.1793C68.5182 47.8743 71.1608 47.8319 73.3697 48.8334C74.003 47.3103 75.1234 45.9757 76.6625 45.0872C80.3851 42.938 85.1447 44.2134 87.2943 47.936L99.1801 68.5229C99.1867 68.5346 99.1932 68.5457 99.1997 68.5574C106.207 80.7361 102.028 96.2931 89.856 103.321C80.7367 108.586 69.7227 107.568 61.8132 101.63C61.2391 101.199 60.7784 100.873 60.3363 100.618L38.4746 87.9961C34.752 85.8472 33.4766 81.087 35.6258 77.3644C37.775 73.6418 42.5349 72.3668 46.2574 74.5157L46.4177 74.6083ZM55.1339 81.8794C55.4261 82.3855 55.2527 83.0324 54.7467 83.3246C54.4193 83.5137 54.0159 83.5137 53.6886 83.3246L44.3009 77.9044C42.45 76.8361 40.0832 77.4701 39.0146 79.3209C37.946 81.1718 38.5801 83.5385 40.4311 84.6074L62.2929 97.229C62.946 97.6066 63.5596 98.0474 64.1626 98.5007C70.8627 103.531 80.1849 104.386 87.8995 99.9322C98.2117 93.9785 101.745 80.7922 95.7908 70.48L83.9049 49.8925C82.8367 48.0415 80.4699 47.4074 78.6191 48.476C77.4197 49.1684 76.731 50.4057 76.686 51.6947C76.6808 51.8426 76.684 51.9912 76.6958 52.1398C76.7401 52.6945 76.9058 53.2483 77.2025 53.7624L83.5599 64.774C84.0177 65.5672 83.7464 66.5814 82.9527 67.0398C82.1597 67.4977 81.1456 67.2257 80.6871 66.4327L73.5008 53.9845C73.328 53.6853 73.1212 53.4177 72.8877 53.1841C71.6799 51.973 69.7658 51.6723 68.2143 52.5681C67.0208 53.2572 66.3327 54.4863 66.2819 55.7687C66.2538 56.4748 66.4182 57.1972 66.7977 57.8544L73.9847 70.3027C74.4425 71.0957 74.1706 72.1098 73.3775 72.5683C72.5845 73.0261 71.5697 72.7542 71.1119 71.9611L62.2666 56.6403C61.1979 54.7894 58.8312 54.1552 56.9802 55.2238C55.7866 55.913 55.099 57.142 55.0478 58.4244C55.0196 59.1306 55.1843 59.8529 55.5638 60.5101L64.4092 75.8305C64.8672 76.6242 64.5954 77.6383 63.8021 78.0961C63.0088 78.5546 61.9945 78.2827 61.5365 77.4896L44.1222 47.3268C43.0535 45.4759 40.6868 44.8417 38.8359 45.9104C36.9849 46.979 36.3508 49.3458 37.4194 51.1967L55.1339 81.8794Z" fill="#665CD1"/>
</svg>
