<svg width="66" height="66" viewBox="0 0 66 66" fill="none" xmlns="http://www.w3.org/2000/svg">
<path d="M65.3888 34.6072C65.2856 41.9971 62.1402 49.9105 55.5469 56.365C50.8953 60.9188 45.304 63.7702 38.8722 64.9385C31.8106 66.2212 25.002 65.3832 18.5438 62.2483C12.1741 59.1563 7.36581 54.4275 4.09448 48.1856C1.37192 42.9908 0.166626 37.437 0.422479 31.6021C0.783127 23.3775 3.75675 16.2016 9.53605 10.2553C14.6652 4.97789 20.9371 1.84916 28.2566 0.847545C34.9207 -0.06438 41.3131 0.890667 47.3531 3.86266C53.5956 6.93434 58.3617 11.5487 61.634 17.6538C64.1769 22.398 65.4036 27.4757 65.3888 34.6072ZM32.3683 52.3731C32.4721 52.0897 32.5309 51.9483 32.5763 51.8029C34.0051 47.2206 35.4356 42.6389 36.8537 38.0534C36.952 37.7355 37.1005 37.5679 37.4316 37.4679C40.3635 36.5821 43.2893 35.6767 46.2163 34.7754C48.069 34.2049 49.9208 33.6315 51.8575 33.0334C51.6192 32.9424 51.464 32.8728 51.3026 32.823C46.686 31.401 42.0704 29.9758 37.4485 28.5707C37.0958 28.4635 36.9511 28.2866 36.8489 27.9563C35.43 23.3712 33.9979 18.7901 32.5676 14.2085C32.524 14.0688 32.4651 13.9338 32.3765 13.6991C32.2929 13.9308 32.2464 14.0457 32.2096 14.1636C30.7787 18.7455 29.3452 23.3266 27.9251 27.9119C27.813 28.2739 27.6469 28.4679 27.26 28.5853C22.8936 29.91 18.5346 31.2588 14.174 32.6021C13.7718 32.726 13.3718 32.8567 12.8744 33.0149C13.1135 33.0962 13.2448 33.1447 13.3784 33.1858C17.9803 34.6008 22.5806 36.0209 27.1874 37.4198C27.6154 37.5498 27.8174 37.758 27.9454 38.1847C28.6215 40.438 29.3353 42.6803 30.0374 44.926C30.7999 47.3648 31.5639 49.8032 32.3683 52.3731Z" fill="#665CD1"/>
</svg>
