<svg width="114" height="26" viewBox="0 0 114 26" fill="none" xmlns="http://www.w3.org/2000/svg">
<path d="M16.2723 25.2141C14.3198 25.2141 12.388 25.2141 10.4379 25.2141C10.4379 25.1296 10.4379 25.0545 10.4379 24.9794C10.4376 20.0711 10.4383 15.1628 10.4359 10.2545C10.4356 9.53877 10.3794 8.82771 10.142 8.14531C9.90962 7.47725 9.51592 6.95687 8.79347 6.7677C8.32131 6.64407 7.84633 6.647 7.38089 6.79777C6.68649 7.02269 6.32892 7.55887 6.11239 8.21414C5.91621 8.80784 5.8485 9.42375 5.84749 10.044C5.83944 15.0111 5.83764 19.9783 5.83393 24.9454C5.83387 25.0277 5.83392 25.11 5.83392 25.2076C3.89406 25.2076 1.96282 25.2076 0.00317011 25.2076C0.00317011 25.1489 0.00317404 25.0868 0.00316967 25.0248C0.00281955 20.0693 -0.00567801 15.1137 0.00669654 10.1583C0.0108278 8.50386 0.282116 6.89165 1.02173 5.39231C2.21438 2.97457 4.15636 1.53902 6.80852 1.08275C8.27783 0.829975 9.7235 0.942312 11.1148 1.51158C11.9816 1.86625 12.7208 2.39947 13.3008 3.14244C13.3153 3.16101 13.3293 3.17996 13.3201 3.16788C13.6868 2.83341 14.0248 2.47687 14.4105 2.18305C15.3202 1.49009 16.3766 1.14729 17.5008 1.02211C19.3409 0.817197 21.0852 1.13205 22.6888 2.0823C24.4221 3.10936 25.5238 4.63812 26.148 6.53127C26.5089 7.62573 26.6903 8.75405 26.6931 9.90346C26.7055 14.959 26.7047 20.0146 26.7084 25.0701C26.7085 25.1109 26.7051 25.1517 26.7026 25.2084C24.7673 25.2084 22.8362 25.2084 20.8745 25.2084C20.8745 25.1368 20.8746 25.0574 20.8745 24.978C20.8742 20.0933 20.8757 15.2086 20.8715 10.3239C20.8709 9.64532 20.8372 8.96465 20.6229 8.31425C20.5264 8.02114 20.3988 7.72663 20.2268 7.47223C19.7877 6.8225 19.1225 6.64001 18.3821 6.6951C17.3745 6.77008 16.7719 7.32502 16.4863 8.40177C16.328 8.99886 16.2741 9.60849 16.2739 10.2233C16.2722 15.1375 16.2726 20.0517 16.2723 24.9659C16.2723 25.0421 16.2723 25.1184 16.2723 25.2141Z" fill="#171717"/>
<path d="M55.2627 13.6531C55.2243 16.4286 54.052 19.4008 51.5949 21.825C49.8613 23.5354 47.7775 24.6064 45.3805 25.0452C42.7488 25.5269 40.2114 25.2122 37.8045 24.0347C35.4307 22.8734 33.6387 21.0973 32.4196 18.753C31.4049 16.8018 30.9557 14.7159 31.0511 12.5244C31.1855 9.4353 32.2937 6.74012 34.4475 4.50675C36.3591 2.52461 38.6965 1.34949 41.4243 0.973298C43.9079 0.630789 46.2902 0.989494 48.5412 2.10574C50.8676 3.25943 52.6439 4.99255 53.8634 7.28553C54.8111 9.06742 55.2683 10.9746 55.2627 13.6531ZM42.9567 20.3257C42.9954 20.2193 43.0173 20.1662 43.0342 20.1116C43.5667 18.3905 44.0998 16.6697 44.6283 14.9474C44.6649 14.828 44.7203 14.7651 44.8437 14.7275C45.9363 14.3948 47.0267 14.0547 48.1175 13.7162C48.808 13.5019 49.4981 13.2866 50.2199 13.062C50.1311 13.0278 50.0733 13.0016 50.0131 12.9829C48.2926 12.4488 46.5724 11.9136 44.8499 11.3858C44.7185 11.3455 44.6646 11.2791 44.6265 11.155C44.0977 9.43293 43.564 7.71233 43.0309 5.99153C43.0147 5.93905 42.9927 5.88834 42.9597 5.80019C42.9286 5.88721 42.9112 5.93037 42.8975 5.97465C42.3642 7.69557 41.83 9.4162 41.3008 11.1384C41.259 11.2743 41.1971 11.3472 41.0529 11.3913C39.4256 11.8888 37.8011 12.3954 36.176 12.8999C36.0261 12.9465 35.877 12.9956 35.6917 13.055C35.7808 13.0855 35.8297 13.1038 35.8795 13.1192C37.5945 13.6506 39.309 14.184 41.0259 14.7094C41.1854 14.7583 41.2606 14.8365 41.3083 14.9967C41.5603 15.843 41.8263 16.6852 42.088 17.5287C42.3722 18.4447 42.6569 19.3605 42.9567 20.3257Z" fill="#171717"/>
<path d="M102.988 6.02525C102.988 6.10832 102.988 6.18404 102.988 6.25976C102.988 9.48678 102.985 12.7138 102.99 15.9408C102.991 16.6865 103.061 17.426 103.348 18.1252C103.868 19.3881 105.508 19.8267 106.57 18.9856C107.044 18.6101 107.268 18.0799 107.373 17.5099C107.465 17.008 107.535 16.4938 107.536 15.9848C107.547 11.0883 107.542 6.19168 107.542 1.29511C107.542 1.20733 107.542 1.11955 107.542 1.01855C109.47 1.01855 111.385 1.01855 113.331 1.01855C113.331 1.07425 113.331 1.13584 113.331 1.19744C113.33 6.1648 113.34 11.1322 113.325 16.0995C113.319 17.8431 112.981 19.5234 112.124 21.0646C110.921 23.2282 109.076 24.5056 106.649 24.9376C105.193 25.1968 103.76 25.0949 102.375 24.5455C101.503 24.1999 100.761 23.6721 100.171 22.9382C100.149 22.9114 100.127 22.8856 100.1 22.8546C99.9236 23.0453 99.7603 23.2387 99.5791 23.4135C98.7199 24.2428 97.677 24.7198 96.5155 24.9204C94.2023 25.3198 92.0549 24.9037 90.1496 23.4913C88.6657 22.3914 87.7744 20.8846 87.2789 19.1272C86.981 18.0707 86.8542 16.9894 86.8534 15.8944C86.8499 11.0155 86.8514 6.13661 86.8512 1.25774C86.8512 1.18212 86.8512 1.1065 86.8512 1.01886C88.7841 1.01886 90.7035 1.01886 92.6451 1.01886C92.6451 1.09883 92.6451 1.17363 92.6451 1.24843C92.6448 6.1627 92.6436 11.077 92.6451 15.9912C92.6453 16.6603 92.7138 17.3215 92.9355 17.9584C93.3917 19.2687 94.835 19.8176 96.0167 19.1271C96.5451 18.8183 96.8064 18.3155 96.9695 17.7525C97.138 17.1708 97.1939 16.5727 97.194 15.9691C97.1945 12.7362 97.1939 9.50325 97.1937 6.27034C97.1937 6.19398 97.1937 6.11762 97.1937 6.02525C99.1229 6.02525 101.042 6.02525 102.988 6.02525Z" fill="#171717"/>
<path d="M83.2136 12.7664C83.1554 16.48 81.9696 19.4712 79.476 21.8986C77.7222 23.6059 75.6205 24.6695 73.2053 25.0804C70.2609 25.5813 67.4672 25.1303 64.898 23.588C61.8897 21.7823 60.0221 19.1234 59.2799 15.701C58.666 12.8705 58.966 10.1166 60.2856 7.53114C62.0977 3.98078 64.9899 1.78085 68.9211 1.08982C72.8475 0.399619 76.3528 1.40398 79.3152 4.09433C81.409 5.99579 82.6433 8.38695 83.062 11.1867C83.1525 11.7913 83.1801 12.4053 83.2136 12.7664ZM71.3626 6.50967C70.0999 6.51522 69.1471 6.73404 68.2638 7.20722C65.5042 8.68542 64.1552 11.7294 64.9017 14.7689C65.6789 17.9337 68.7532 20.0355 71.9534 19.5901C74.8412 19.1882 77.204 16.6934 77.4662 13.7718C77.611 12.159 77.2341 10.6759 76.3071 9.35304C75.0461 7.55348 73.3145 6.58323 71.3626 6.50967Z" fill="#171717"/>
</svg>
