<svg width="21" height="21" viewBox="0 0 21 21" fill="none" xmlns="http://www.w3.org/2000/svg">
<g clip-path="url(#clip0_2498_3979)">
<path d="M17.75 8.6084C17.75 14.4417 10.25 19.4417 10.25 19.4417C10.25 19.4417 2.75 14.4417 2.75 8.6084C2.75 6.61928 3.54018 4.71162 4.9467 3.3051C6.35322 1.89857 8.26088 1.1084 10.25 1.1084C12.2391 1.1084 14.1468 1.89857 15.5533 3.3051C16.9598 4.71162 17.75 6.61928 17.75 8.6084Z" stroke="#665CD1" stroke-width="1.33333" stroke-linecap="round" stroke-linejoin="round"/>
<path d="M10.25 11.1084C11.6307 11.1084 12.75 9.98911 12.75 8.6084C12.75 7.22769 11.6307 6.1084 10.25 6.1084C8.86929 6.1084 7.75 7.22769 7.75 8.6084C7.75 9.98911 8.86929 11.1084 10.25 11.1084Z" stroke="#665CD1" stroke-width="1.33333" stroke-linecap="round" stroke-linejoin="round"/>
</g>
<defs>
<clipPath id="clip0_2498_3979">
<rect width="20" height="20" fill="white" transform="translate(0.25 0.275391)"/>
</clipPath>
</defs>
</svg>
