<svg width="20" height="20" viewBox="0 0 20 20" fill="none" xmlns="http://www.w3.org/2000/svg">
<path d="M20 10.4897C19.9682 12.7635 19.0004 15.1984 16.9717 17.1844C15.5404 18.5856 13.82 19.463 11.841 19.8224C9.66822 20.2171 7.57325 19.9593 5.58612 18.9947C3.62621 18.0433 2.14674 16.5883 1.14017 14.6677C0.302461 13.0693 -0.0683971 11.3604 0.0103272 9.56508C0.121296 7.03443 1.03626 4.82646 2.8145 2.99682C4.39271 1.373 6.32251 0.410319 8.57468 0.102129C10.6252 -0.178463 12.5921 0.115397 14.4505 1.02986C16.3713 1.97499 17.8378 3.3948 18.8446 5.27328C19.6271 6.73305 20.0045 8.29542 20 10.4897ZM9.83981 15.9561C9.87177 15.8689 9.88984 15.8254 9.9038 15.7807C10.3434 14.3708 10.7836 12.961 11.2199 11.5501C11.2502 11.4523 11.2959 11.4007 11.3978 11.3699C12.2999 11.0974 13.2001 10.8188 14.1007 10.5415C14.6708 10.3659 15.2406 10.1895 15.8365 10.0055C15.7632 9.97748 15.7154 9.95604 15.6657 9.94074C14.2453 9.50319 12.8251 9.06467 11.403 8.63234C11.2944 8.59935 11.2499 8.5449 11.2185 8.44328C10.7819 7.03248 10.3412 5.62292 9.90113 4.2132C9.88771 4.1702 9.86959 4.12866 9.84233 4.05645C9.81661 4.12774 9.80231 4.1631 9.79098 4.19937C9.35069 5.60919 8.90962 7.01878 8.47267 8.42962C8.43818 8.541 8.38708 8.6007 8.26802 8.63682C6.92453 9.04444 5.5833 9.45944 4.24157 9.87276C4.11782 9.91088 3.99473 9.95109 3.84168 9.99977C3.91526 10.0248 3.95565 10.0397 3.99676 10.0524C5.41272 10.4877 6.82822 10.9247 8.2457 11.3551C8.37739 11.3951 8.43952 11.4592 8.47891 11.5905C8.68696 12.2838 8.90659 12.9737 9.12262 13.6647C9.35723 14.4151 9.5923 15.1654 9.83981 15.9561Z" fill="#5A5A5A"/>
</svg>
