<svg width="20" height="21" viewBox="0 0 20 21" fill="none" xmlns="http://www.w3.org/2000/svg">
<path d="M20 10.7651C19.9682 13.0389 19.0004 15.4738 16.9717 17.4598C15.5404 18.861 13.82 19.7383 11.841 20.0978C9.66822 20.4925 7.57325 20.2346 5.58612 19.2701C3.62621 18.3187 2.14674 16.8637 1.14017 14.9431C0.302461 13.3447 -0.0683971 11.6358 0.0103272 9.84047C0.121296 7.30982 1.03626 5.10185 2.8145 3.27221C4.39271 1.64839 6.32251 0.685709 8.57468 0.37752C10.6252 0.0969275 12.5921 0.390788 14.4505 1.30525C16.3713 2.25038 17.8378 3.6702 18.8446 5.54867C19.6271 7.00844 20.0045 8.57081 20 10.7651ZM9.83981 16.2315C9.87177 16.1443 9.88984 16.1008 9.9038 16.0561C10.3434 14.6462 10.7836 13.2364 11.2199 11.8255C11.2502 11.7277 11.2959 11.6761 11.3978 11.6453C12.2999 11.3728 13.2001 11.0942 14.1007 10.8169C14.6708 10.6413 15.2406 10.4649 15.8365 10.2809C15.7632 10.2529 15.7154 10.2314 15.6657 10.2161C14.2453 9.77858 12.8251 9.34007 11.403 8.90773C11.2944 8.87474 11.2499 8.82029 11.2185 8.71867C10.7819 7.30787 10.3412 5.89831 9.90113 4.48859C9.88771 4.44559 9.86959 4.40405 9.84233 4.33184C9.81661 4.40313 9.80231 4.43849 9.79098 4.47476C9.35069 5.88458 8.90962 7.29417 8.47267 8.70501C8.43818 8.81639 8.38708 8.87609 8.26802 8.91221C6.92453 9.31983 5.5833 9.73483 4.24157 10.1481C4.11782 10.1863 3.99473 10.2265 3.84168 10.2752C3.91526 10.3002 3.95565 10.3151 3.99676 10.3278C5.41272 10.7631 6.82822 11.2001 8.2457 11.6305C8.37739 11.6705 8.43952 11.7346 8.47891 11.8659C8.68696 12.5592 8.90659 13.2491 9.12262 13.9401C9.35723 14.6905 9.5923 15.4408 9.83981 16.2315Z" fill="#171717"/>
</svg>
