<svg width="20" height="21" viewBox="0 0 20 21" fill="none" xmlns="http://www.w3.org/2000/svg">
<path d="M20 11.1723C19.9682 13.4462 19.0004 15.881 16.9717 17.867C15.5404 19.2682 13.82 20.1456 11.841 20.5051C9.66822 20.8997 7.57325 20.6419 5.58612 19.6773C3.62621 18.7259 2.14674 17.2709 1.14017 15.3503C0.302461 13.7519 -0.0683971 12.0431 0.0103272 10.2477C0.121296 7.71704 1.03626 5.50908 2.8145 3.67944C4.39271 2.05562 6.32251 1.09294 8.57468 0.784747C10.6252 0.504154 12.5921 0.798015 14.4505 1.71247C16.3713 2.65761 17.8378 4.07742 18.8446 5.95589C19.6271 7.41567 20.0045 8.97804 20 11.1723ZM9.83981 16.6388C9.87177 16.5516 9.88984 16.5081 9.9038 16.4633C10.3434 15.0534 10.7836 13.6436 11.2199 12.2327C11.2502 12.1349 11.2959 12.0833 11.3978 12.0525C12.2999 11.78 13.2001 11.5014 14.1007 11.2241C14.6708 11.0485 15.2406 10.8721 15.8365 10.6881C15.7632 10.6601 15.7154 10.6387 15.6657 10.6234C14.2453 10.1858 12.8251 9.74729 11.403 9.31496C11.2944 9.28196 11.2499 9.22752 11.2185 9.1259C10.7819 7.7151 10.3412 6.30554 9.90113 4.89581C9.88771 4.85282 9.86959 4.81128 9.84233 4.73907C9.81661 4.81035 9.80231 4.84571 9.79098 4.88199C9.35069 6.29181 8.90962 7.70139 8.47267 9.11224C8.43818 9.22362 8.38708 9.28332 8.26802 9.31944C6.92453 9.72706 5.5833 10.1421 4.24157 10.5554C4.11782 10.5935 3.99473 10.6337 3.84168 10.6824C3.91526 10.7074 3.95565 10.7223 3.99676 10.735C5.41272 11.1704 6.82822 11.6073 8.2457 12.0378C8.37739 12.0778 8.43952 12.1418 8.47891 12.2731C8.68696 12.9664 8.90659 13.6564 9.12262 14.3473C9.35723 15.0978 9.5923 15.848 9.83981 16.6388Z" fill="#665CD1"/>
</svg>
