<svg width="32" height="17" viewBox="0 0 32 17" fill="none" xmlns="http://www.w3.org/2000/svg">
<g clip-path="url(#clip0_1500_4904)">
<path d="M7.50935 1.43942C7.71823 1.04614 8.28176 1.04614 8.49065 1.43942L10.3273 4.89759C10.4076 5.04878 10.5532 5.1545 10.7218 5.18415L14.5782 5.86233C15.0168 5.93945 15.191 6.4754 14.8815 6.79559L12.1601 9.61102C12.0412 9.73412 11.9856 9.90519 12.0095 10.0747L12.5562 13.952C12.6184 14.3929 12.1625 14.7242 11.7623 14.5288L8.24377 12.8107C8.08994 12.7355 7.91006 12.7355 7.75623 12.8107L4.23765 14.5288C3.8375 14.7242 3.38159 14.393 3.44377 13.952L3.99051 10.0747C4.01441 9.90519 3.95883 9.73412 3.83985 9.61102L1.11851 6.79559C0.809025 6.4754 0.983165 5.93945 1.42175 5.86233L5.27823 5.18415C5.44683 5.1545 5.59236 5.04878 5.67266 4.89759L7.50935 1.43942Z" fill="#665CD1"/>
</g>
<path d="M20.4102 12.5156V10.8766H16.7692V10.1396L20.5752 4.76062H21.4112V10.0626H22.5772V10.8766H21.4112V12.5156H20.4102ZM20.4102 10.0626V5.97062H20.6632L17.5942 10.3046V10.0626H20.4102ZM23.5079 12.5156V11.2946H24.7289V12.5156H23.5079ZM28.7043 12.6146C27.8096 12.6146 27.1166 12.424 26.6253 12.0426C26.134 11.6613 25.8883 11.1296 25.8883 10.4476C25.8883 9.91229 26.0533 9.46862 26.3833 9.11662C26.7206 8.75729 27.157 8.54096 27.6923 8.46762V8.64362C27.201 8.54096 26.8086 8.31729 26.5153 7.97262C26.2293 7.62796 26.0863 7.21362 26.0863 6.72962C26.0863 6.08429 26.3173 5.57829 26.7793 5.21162C27.2486 4.84496 27.8903 4.66162 28.7043 4.66162C29.5256 4.66162 30.1673 4.84496 30.6293 5.21162C31.0986 5.57829 31.3333 6.08429 31.3333 6.72962C31.3333 7.21362 31.194 7.63162 30.9153 7.98362C30.644 8.33562 30.2663 8.55562 29.7823 8.64362V8.46762C30.3176 8.54096 30.7393 8.75729 31.0473 9.11662C31.3626 9.46862 31.5203 9.91229 31.5203 10.4476C31.5203 11.1296 31.2746 11.6613 30.7833 12.0426C30.2993 12.424 29.6063 12.6146 28.7043 12.6146ZM28.7043 11.7896C29.3276 11.7896 29.7896 11.6723 30.0903 11.4376C30.3983 11.203 30.5523 10.8546 30.5523 10.3926C30.5523 9.92329 30.3983 9.57496 30.0903 9.34762C29.7896 9.12029 29.3276 9.00662 28.7043 9.00662C28.0883 9.00662 27.6263 9.12029 27.3183 9.34762C27.0103 9.57496 26.8563 9.92329 26.8563 10.3926C26.8563 10.8546 27.0103 11.203 27.3183 11.4376C27.6263 11.6723 28.0883 11.7896 28.7043 11.7896ZM28.7043 8.17062C29.2396 8.17062 29.6466 8.05329 29.9253 7.81862C30.2113 7.57662 30.3543 7.24296 30.3543 6.81762C30.3543 6.39962 30.2113 6.07329 29.9253 5.83862C29.6466 5.60396 29.2396 5.48662 28.7043 5.48662C28.1763 5.48662 27.7693 5.60396 27.4833 5.83862C27.1973 6.07329 27.0543 6.39962 27.0543 6.81762C27.0543 7.24296 27.1973 7.57662 27.4833 7.81862C27.7693 8.05329 28.1763 8.17062 28.7043 8.17062Z" fill="#5A5A5A"/>
<defs>
<clipPath id="clip0_1500_4904">
<rect width="16" height="16" fill="white" transform="translate(0 0.515625)"/>
</clipPath>
</defs>
</svg>
