<svg width="120" height="120" viewBox="0 0 120 120" fill="none" xmlns="http://www.w3.org/2000/svg">
<path fill-rule="evenodd" clip-rule="evenodd" d="M98.0035 61.0586C98.0035 62.0893 97.124 62.8837 96.0945 62.8339L95.7252 62.8161C94.8003 62.7714 94.0904 61.9846 94.0904 61.0586C94.0904 60.1326 94.8003 59.3459 95.7252 59.3012L96.0945 59.2833C97.124 59.2335 98.0035 60.0279 98.0035 61.0586ZM97.2789 53.6352C97.479 54.6461 96.7706 55.6022 95.7512 55.7522L95.3806 55.8067C94.4667 55.9411 93.6199 55.3017 93.4405 54.3956C93.2611 53.4894 93.8034 52.5884 94.6997 52.3646L95.0634 52.2738C96.063 52.0242 97.0789 52.6246 97.2789 53.6352ZM95.1184 46.5081C95.5132 47.46 95.0052 48.534 94.0349 48.8813L93.6821 49.0075C92.8126 49.3187 91.858 48.8611 91.5041 48.0081C91.1502 47.1549 91.5036 46.1622 92.3383 45.7667L92.6777 45.606C93.6086 45.1649 94.7237 45.5566 95.1184 46.5081ZM91.6019 39.9433C92.175 40.7994 91.8863 41.9497 91.0031 42.4802L90.6829 42.6726C89.8904 43.1486 88.8646 42.8883 88.3503 42.1201C87.836 41.352 87.9881 40.3071 88.7301 39.7559L89.03 39.533C89.8571 38.9186 91.0287 39.0872 91.6019 39.9433ZM86.8733 34.1875C87.6019 34.9162 87.5413 36.0999 86.7779 36.7921L86.5019 37.0424C85.8168 37.6637 84.7604 37.6087 84.1064 36.9547C83.4524 36.3007 83.3976 35.2446 84.0189 34.5595L84.2697 34.283C84.9618 33.5199 86.1449 33.4591 86.8733 34.1875ZM81.1182 29.4593C81.9743 30.0325 82.1428 31.2041 81.5284 32.0312L81.3055 32.3312C80.7543 33.0733 79.7094 33.2251 78.9412 32.7108C78.173 32.1965 77.9125 31.1708 78.3886 30.3784L78.581 30.058C79.1116 29.1748 80.2621 28.886 81.1182 29.4593ZM74.5526 25.9426C75.5043 26.3374 75.8964 27.4529 75.4552 28.3841L75.2947 28.723C74.8992 29.5576 73.9065 29.9109 73.0534 29.557C72.2004 29.2032 71.7428 28.2488 72.0539 27.3793L72.1803 27.0259C72.5273 26.0558 73.6009 25.5478 74.5526 25.9426ZM67.4259 23.7822C68.4366 23.9824 69.0371 24.9983 68.7876 25.998L68.6968 26.3615C68.4731 27.2578 67.5719 27.8002 66.6656 27.6207C65.7594 27.4413 65.1201 26.5946 65.2546 25.6806L65.3091 25.3098C65.4591 24.2904 66.4152 23.5821 67.4259 23.7822ZM60.0027 23.0576C61.0333 23.0576 61.8277 23.9371 61.778 24.9665L61.7601 25.3359C61.7154 26.261 60.9289 26.9707 60.0027 26.9707C59.0764 26.9707 58.2899 26.261 58.2452 25.3359L58.2273 24.9665C58.1776 23.9371 58.972 23.0576 60.0027 23.0576ZM52.5795 23.7822C53.5903 23.5821 54.5462 24.2904 54.6962 25.3098L54.7507 25.6807C54.8852 26.5946 54.2458 27.4413 53.3396 27.6207C52.4335 27.8002 51.5325 27.2579 51.3087 26.3617L51.2179 25.998C50.9682 24.9984 51.5688 23.9824 52.5795 23.7822ZM45.4527 25.9426C46.4043 25.5479 47.4779 26.0558 47.8251 27.0258L47.9515 27.3792C48.2627 28.2488 47.805 29.2032 46.9519 29.5571C46.0989 29.9109 45.1063 29.5576 44.7109 28.7231L44.5502 28.3839C44.109 27.4528 44.501 26.3374 45.4527 25.9426ZM38.8872 29.4592C39.7434 28.886 40.8938 29.1749 41.4243 30.0581L41.6167 30.3785C42.0927 31.1709 41.8324 32.1965 41.0643 32.7108C40.2962 33.2251 39.2511 33.0733 38.6998 32.3312L38.477 32.0313C37.8625 31.2042 38.0311 30.0325 38.8872 29.4592ZM33.1318 34.1878C33.8604 33.4592 35.0438 33.52 35.736 34.2833L35.9864 34.5594C36.6077 35.2445 36.5528 36.3008 35.8988 36.9548C35.2448 37.6088 34.1885 37.6637 33.5034 37.0423L33.2273 36.7919C32.4641 36.0998 32.4033 34.9164 33.1318 34.1878ZM28.4033 39.9432C28.9765 39.0871 30.1482 38.9185 30.9753 39.5329L31.2753 39.7558C32.0173 40.307 32.1691 41.3521 31.6548 42.1202C31.1405 42.8883 30.1149 43.1487 29.3225 42.6727L29.0021 42.4803C28.1189 41.9497 27.83 40.7994 28.4033 39.9432ZM24.8867 46.5086C25.2814 45.557 26.3968 45.165 27.3279 45.6062L27.6671 45.7669C28.5017 46.1623 28.855 47.1548 28.5011 48.0079C28.1473 48.8609 27.1928 49.3187 26.3232 49.0075L25.9699 48.881C24.9998 48.5339 24.4919 47.4603 24.8867 46.5086ZM22.7263 53.6355C22.9264 52.6248 23.9424 52.0242 24.9421 52.2738L25.3057 52.3646C26.2019 52.5884 26.7442 53.4895 26.5648 54.3957C26.3853 55.3018 25.5386 55.9411 24.6247 55.8067L24.2538 55.7521C23.2344 55.6022 22.5261 54.6462 22.7263 53.6355ZM23.9105 59.2833C22.8811 59.2336 22.0016 60.028 22.0016 61.0586C22.0016 62.0892 22.8811 62.8837 23.9105 62.8339L24.2799 62.8161C25.2051 62.7713 25.9146 61.9849 25.9146 61.0586C25.9146 60.1324 25.2051 59.3459 24.2799 59.3012L23.9105 59.2833ZM22.7263 68.4818C22.5261 67.4711 23.2345 66.515 24.2539 66.3651L24.6247 66.3105C25.5386 66.1761 26.3853 66.8153 26.5648 67.7215C26.7442 68.6277 26.2018 69.529 25.3055 69.7527L24.942 69.8435C23.9423 70.093 22.9264 69.4925 22.7263 68.4818ZM24.8866 75.6085C24.4919 74.6568 24.9999 73.5832 25.97 73.2362L26.3233 73.1098C27.1929 72.7987 28.1472 73.2562 28.5011 74.1093C28.8549 74.9624 28.5016 75.9551 27.667 76.3506L27.3281 76.5111C26.3969 76.9523 25.2814 76.5603 24.8866 75.6085ZM28.4033 82.1741C27.8301 81.3179 28.1188 80.1675 29.002 79.6369L29.3224 79.4444C30.1148 78.9684 31.1406 79.2289 31.6548 79.9971C32.1691 80.7652 32.0173 81.8102 31.2752 82.3614L30.9752 82.5843C30.1482 83.1987 28.9765 83.0302 28.4033 82.1741ZM33.1316 87.9292C32.4031 87.2008 32.4639 86.0177 33.227 85.3256L33.5035 85.0748C34.1886 84.4535 35.2448 84.5083 35.8987 85.1623C36.5527 85.8163 36.6077 86.8726 35.9864 87.5578L35.7362 87.8338C35.044 88.5971 33.8603 88.6578 33.1316 87.9292ZM38.8873 92.6581C38.0312 92.0847 37.8626 90.9129 38.4771 90.0858L38.6998 89.786C39.2511 89.044 40.296 88.8919 41.0641 89.4062C41.8324 89.9205 42.0927 90.9463 41.6167 91.7389L41.4242 92.0594C40.8938 92.9426 39.7434 93.2314 38.8873 92.6581ZM45.4529 96.1749C44.5011 95.7801 44.109 94.6646 44.5502 93.7335L44.7108 93.3943C45.1063 92.5595 46.099 92.2061 46.9522 92.56C47.8052 92.9139 48.2627 93.8684 47.9516 94.7379L47.825 95.0917C47.4779 96.0616 46.4045 96.5696 45.4529 96.1749ZM52.5798 98.3352C51.5689 98.1349 50.9683 97.1187 51.2179 96.1188L51.3087 95.7556C51.5325 94.8593 52.4334 94.317 53.3396 94.4964C54.2458 94.6758 54.8852 95.5226 54.7507 96.4365L54.6962 96.8075C54.5462 97.8269 53.5905 98.5353 52.5798 98.3352ZM60.0027 99.0593C58.9723 99.0593 58.1776 98.1802 58.2273 97.1511L58.2452 96.7817C58.2899 95.8565 59.0764 95.1463 60.0027 95.1463C60.9289 95.1463 61.7154 95.8565 61.7601 96.7817L61.778 97.1511C61.8277 98.1802 61.033 99.0593 60.0027 99.0593ZM67.4257 98.3351C66.415 98.5354 65.4591 97.8269 65.3092 96.8075L65.2546 96.4366C65.1202 95.5226 65.7594 94.6758 66.6656 94.4964C67.5719 94.317 68.4731 94.8594 68.6968 95.7558L68.7875 96.1189C69.0371 97.1188 68.4366 98.1349 67.4257 98.3351ZM74.5523 96.1749C73.6007 96.5696 72.5274 96.0616 72.1804 95.0916L72.0538 94.7379C71.7427 93.8684 72.2002 92.914 73.0532 92.5601C73.9064 92.2061 74.8993 92.5596 75.2948 93.3944L75.4553 93.7332C75.8964 94.6645 75.5042 95.7801 74.5523 96.1749ZM81.1181 92.6581C80.2621 93.2314 79.1116 92.9427 78.5811 92.0595L78.3885 91.739C77.9125 90.9464 78.1731 89.9205 78.9414 89.4061C79.7095 88.8919 80.7542 89.044 81.3054 89.786L81.5282 90.0859C82.1427 90.9129 81.9742 92.0847 81.1181 92.6581ZM86.8735 87.9294C86.145 88.658 84.9616 88.5973 84.2695 87.8341L84.0189 87.5577C83.3976 86.8726 83.4524 85.8163 84.1065 85.1623C84.7605 84.5083 85.8167 84.4534 86.5018 85.0748L86.7782 85.3254C87.5414 86.0175 87.6021 87.2009 86.8735 87.9294ZM91.6018 82.1741C91.0287 83.0302 89.8572 83.1986 89.0302 82.5843L88.7301 82.3613C87.9881 81.8101 87.8362 80.7652 88.3504 79.9971C88.8647 79.229 89.8902 78.9688 90.6826 79.4447L91.003 79.6371C91.8862 80.1676 92.1749 81.318 91.6018 82.1741ZM95.1184 75.609C94.7237 76.5606 93.6084 76.9525 92.6774 76.5113L92.3384 76.3507C91.5036 75.9552 91.1502 74.9623 91.5042 74.1091C91.8581 73.2561 92.8125 72.7986 93.682 73.1097L94.0348 73.2359C95.0052 73.5831 95.5132 74.657 95.1184 75.609ZM97.2789 68.4821C97.0788 69.4927 96.0631 70.093 95.0636 69.8435L94.6999 69.7527C93.8036 69.529 93.2611 68.6278 93.4405 67.7215C93.6199 66.8153 94.4667 66.1761 95.3807 66.3105L95.7511 66.365C96.7706 66.515 97.479 67.4713 97.2789 68.4821Z" fill="#665CD1"/>
<path d="M36.6688 18.9133C36.6688 15.3115 39.5887 12.3916 43.1906 12.3916H62.8146C66.4167 12.3916 69.3365 15.3115 69.3365 18.9133V31.2039C69.3365 34.8057 66.4167 37.7256 62.8146 37.7256H43.1906C39.5887 37.7256 36.6688 34.8058 36.6688 31.2039V18.9133Z" fill="#FEFEFE"/>
<path fill-rule="evenodd" clip-rule="evenodd" d="M62.8146 16.3046H43.1906C41.7498 16.3046 40.5819 17.4726 40.5819 18.9133V31.2039C40.5819 32.6446 41.7498 33.8126 43.1906 33.8126H62.8146C64.2554 33.8126 65.4234 32.6446 65.4234 31.2039V18.9133C65.4234 17.4726 64.2554 16.3046 62.8146 16.3046ZM43.1906 12.3916C39.5887 12.3916 36.6688 15.3115 36.6688 18.9133V31.2039C36.6688 34.8058 39.5887 37.7256 43.1906 37.7256H62.8146C66.4167 37.7256 69.3365 34.8057 69.3365 31.2039V18.9133C69.3365 15.3115 66.4167 12.3916 62.8146 12.3916H43.1906Z" fill="#665CD1"/>
<path fill-rule="evenodd" clip-rule="evenodd" d="M34.5238 21.0391C30.922 21.0391 28.0021 23.9589 28.0021 27.5608V40.0199C28.0021 43.6217 30.922 46.5416 34.5238 46.5416H35.3357V51.1775C35.3357 52.9206 37.4431 53.7935 38.6757 52.561L44.6951 46.5416H53.8988C57.5007 46.5416 60.4205 43.6217 60.4205 40.0199V27.5608C60.4205 23.9589 57.5007 21.0391 53.8989 21.0391H34.5238Z" fill="#FEFEFE"/>
<path fill-rule="evenodd" clip-rule="evenodd" d="M39.2487 46.4541L43.0743 42.6286H53.8988C55.3396 42.6286 56.5075 41.4606 56.5075 40.0199V27.5608C56.5075 26.12 55.3396 24.9521 53.8989 24.9521H34.5238C33.0831 24.9521 31.9151 26.12 31.9151 27.5608V40.0199C31.9151 41.4606 33.0831 42.6286 34.5238 42.6286H39.2487V46.4541ZM28.0021 27.5608C28.0021 23.9589 30.922 21.0391 34.5238 21.0391H53.8989C57.5007 21.0391 60.4205 23.9589 60.4205 27.5608V40.0199C60.4205 43.6217 57.5007 46.5416 53.8988 46.5416H44.6951L38.6757 52.561C37.4431 53.7935 35.3357 52.9206 35.3357 51.1775V46.5416H34.5238C30.922 46.5416 28.0021 43.6217 28.0021 40.0199V27.5608Z" fill="#665CD1"/>
<path d="M70.0037 79.3474L84.0241 86.7332C85.9265 87.7356 88.2006 87.7356 90.1037 86.7332L104.123 79.3474C106.265 78.2197 107.606 75.9978 107.606 73.5776V59.757C107.606 57.3365 106.265 55.1151 104.123 53.9869L90.1037 46.6013C88.2006 45.5991 85.9265 45.5991 84.0241 46.6013L70.0037 53.9869C67.8626 55.1151 66.5217 57.3365 66.5217 59.757V73.5776C66.5217 75.9978 67.8626 78.2197 70.0037 79.3474Z" fill="#FEFEFE"/>
<path fill-rule="evenodd" clip-rule="evenodd" d="M85.8483 83.2715L71.8278 75.8856C70.9709 75.4343 70.4348 74.5461 70.4348 73.5776V59.757C70.4348 58.7888 70.9709 57.9002 71.8278 57.449L85.8483 50.0633C86.6087 49.6624 87.5185 49.6624 88.2796 50.0633L102.3 57.449C103.156 57.9002 103.693 58.7888 103.693 59.757V73.5776C103.693 74.5461 103.156 75.4343 102.3 75.8856L88.2796 83.2715C87.5185 83.6719 86.6087 83.6719 85.8483 83.2715ZM84.0241 86.7332L70.0037 79.3474C67.8626 78.2197 66.5217 75.9978 66.5217 73.5776V59.757C66.5217 57.3365 67.8626 55.1151 70.0037 53.9869L84.0241 46.6013C85.9265 45.5991 88.2006 45.5991 90.1037 46.6013L104.123 53.9869C106.265 55.1151 107.606 57.3365 107.606 59.757V73.5776C107.606 75.9978 106.265 78.2197 104.123 79.3474L90.1037 86.7332C88.2006 87.7356 85.9265 87.7356 84.0241 86.7332Z" fill="#665CD1"/>
<path fill-rule="evenodd" clip-rule="evenodd" d="M85.1068 85.901V66.8262H89.0198V85.901H85.1068Z" fill="#665CD1"/>
<path fill-rule="evenodd" clip-rule="evenodd" d="M67.1641 58.7385L87.0795 69.0374L106.321 58.7251L104.473 55.2761L87.0469 64.6153L68.9615 55.2627L67.1641 58.7385Z" fill="#665CD1"/>
<path fill-rule="evenodd" clip-rule="evenodd" d="M95.1072 63.3501L77.1646 54.0715L78.9619 50.5957L99.0202 60.9684V70.3343H95.1072V63.3501Z" fill="#665CD1"/>
<path d="M102.447 65.488L91.3553 71.1841C91.0181 71.3576 90.8988 71.7809 91.0964 72.1043L92.1542 73.8365C92.327 74.1196 92.6851 74.2278 92.9864 74.0876L103.021 69.418C103.251 69.3111 103.398 69.0802 103.398 68.8265V66.0678C103.398 65.58 102.882 65.265 102.447 65.488Z" fill="#FEFEFE"/>
<path d="M12.639 70.9146C12.639 67.3126 15.5589 64.3926 19.1608 64.3926H38.7848C42.3867 64.3926 45.3066 67.3126 45.3066 70.9146V93.2607C45.3066 96.8626 42.3867 99.7824 38.7848 99.7824H19.1608C15.5589 99.7824 12.639 96.8626 12.639 93.2607V70.9146Z" fill="#FEFEFE"/>
<path fill-rule="evenodd" clip-rule="evenodd" d="M38.7848 68.3059H19.1608C17.72 68.3059 16.5521 69.4733 16.5521 70.9146V93.2607C16.5521 94.7013 17.72 95.8694 19.1608 95.8694H38.7848C40.2256 95.8694 41.3935 94.7013 41.3935 93.2607V70.9146C41.3935 69.4733 40.2256 68.3059 38.7848 68.3059ZM19.1608 64.3926C15.5589 64.3926 12.639 67.3126 12.639 70.9146V93.2607C12.639 96.8626 15.5589 99.7824 19.1608 99.7824H38.7848C42.3867 99.7824 45.3066 96.8626 45.3066 93.2607V70.9146C45.3066 67.3126 42.3867 64.3926 38.7848 64.3926H19.1608Z" fill="#665CD1"/>
<path d="M19.4448 73.2402C19.4448 72.1126 20.359 71.1982 21.4866 71.1982H36.4592C37.5868 71.1982 38.5009 72.1126 38.5009 73.2402C38.5009 74.3678 37.5868 75.2815 36.4592 75.2815H21.4866C20.359 75.2815 19.4448 74.3678 19.4448 73.2402Z" fill="#665CD1"/>
<path d="M19.4442 80.0462C19.4442 78.9186 20.3583 78.0049 21.4859 78.0049H22.8471C23.9747 78.0049 24.8888 78.9186 24.8888 80.0462C24.8888 81.1738 23.9747 82.0881 22.8471 82.0881H21.4859C20.3583 82.0881 19.4442 81.1738 19.4442 80.0462Z" fill="#665CD1"/>
<path d="M19.4442 85.4921C19.4442 84.3645 20.3583 83.4502 21.4859 83.4502H22.8471C23.9747 83.4502 24.8888 84.3645 24.8888 85.4921C24.8888 86.6198 23.9747 87.5335 22.8471 87.5335H21.4859C20.3583 87.5335 19.4442 86.6198 19.4442 85.4921Z" fill="#665CD1"/>
<path d="M19.4442 90.9345C19.4442 89.8069 20.3583 88.8926 21.4859 88.8926H22.8471C23.9747 88.8926 24.8888 89.8069 24.8888 90.9345C24.8888 92.0622 23.9747 92.9765 22.8471 92.9765H21.4859C20.3583 92.9765 19.4442 92.0622 19.4442 90.9345Z" fill="#665CD1"/>
<path d="M26.25 80.0462C26.25 78.9186 27.1641 78.0049 28.2917 78.0049H29.6528C30.7805 78.0049 31.6946 78.9186 31.6946 80.0462C31.6946 81.1738 30.7805 82.0881 29.6528 82.0881H28.2917C27.1641 82.0881 26.25 81.1738 26.25 80.0462Z" fill="#665CD1"/>
<path d="M26.25 85.4921C26.25 84.3645 27.1641 83.4502 28.2917 83.4502H29.6528C30.7805 83.4502 31.6946 84.3645 31.6946 85.4921C31.6946 86.6198 30.7805 87.5335 29.6528 87.5335H28.2917C27.1641 87.5335 26.25 86.6198 26.25 85.4921Z" fill="#665CD1"/>
<path d="M33.0554 85.4921C33.0554 84.3645 33.9695 83.4502 35.0971 83.4502H36.4583C37.5859 83.4502 38.5 84.3645 38.5 85.4921C38.5 86.6198 37.5859 87.5335 36.4583 87.5335H35.0971C33.9695 87.5335 33.0554 86.6198 33.0554 85.4921Z" fill="#665CD1"/>
<path d="M26.25 90.9345C26.25 89.8069 27.1641 88.8926 28.2917 88.8926H29.6528C30.7805 88.8926 31.6946 89.8069 31.6946 90.9345C31.6946 92.0622 30.7805 92.9765 29.6528 92.9765H28.2917C27.1641 92.9765 26.25 92.0622 26.25 90.9345Z" fill="#665CD1"/>
<path d="M33.0554 90.9345C33.0554 89.8069 33.9695 88.8926 35.0971 88.8926H36.4583C37.5859 88.8926 38.5 89.8069 38.5 90.9345C38.5 92.0622 37.5859 92.9765 36.4583 92.9765H35.0971C33.9695 92.9765 33.0554 92.0622 33.0554 90.9345Z" fill="#665CD1"/>
<path d="M33.0554 80.0462C33.0554 78.9186 33.9695 78.0049 35.0971 78.0049H36.4583C37.5859 78.0049 38.5 78.9186 38.5 80.0462C38.5 81.1738 37.5859 82.0881 36.4583 82.0881H35.0971C33.9695 82.0881 33.0554 81.1738 33.0554 80.0462Z" fill="#665CD1"/>
</svg>
