<svg width="109" height="38" viewBox="0 0 109 38" fill="none" xmlns="http://www.w3.org/2000/svg">
<path d="M100.113 0.333127H9.0915C8.75972 0.333127 8.43191 0.333127 8.101 0.334968C7.824 0.336808 7.54921 0.342154 7.26955 0.346653C6.66199 0.353924 6.05587 0.40828 5.45644 0.509248C4.85785 0.612415 4.27802 0.806914 3.73655 1.08617C3.19573 1.36778 2.70158 1.73371 2.27201 2.17068C1.84018 2.60642 1.48022 3.11008 1.20597 3.66228C0.930959 4.21339 0.740265 4.80395 0.640476 5.41357C0.539738 6.02242 0.485529 6.6383 0.478338 7.25566C0.469941 7.53777 0.469055 7.82082 0.46463 8.10297V29.371C0.469055 29.6566 0.469941 29.9334 0.478338 30.2192C0.485531 30.8365 0.53974 31.4524 0.640476 32.0612C0.73999 32.6712 0.930694 33.2621 1.20597 33.8134C1.4801 34.3638 1.84011 34.8654 2.27201 35.2988C2.69995 35.7377 3.19443 36.1038 3.73655 36.3833C4.27801 36.6633 4.85779 36.859 5.45644 36.9637C6.05597 37.0639 6.66203 37.1183 7.26955 37.1264C7.54921 37.1327 7.824 37.1362 8.101 37.1362C8.4319 37.1381 8.75974 37.1381 9.0915 37.1381H100.113C100.439 37.1381 100.769 37.1381 101.094 37.1362C101.37 37.1362 101.653 37.1327 101.928 37.1264C102.535 37.1187 103.14 37.0643 103.738 36.9637C104.338 36.8582 104.92 36.6626 105.464 36.3833C106.006 36.1037 106.5 35.7375 106.928 35.2988C107.358 34.8637 107.719 34.3625 107.997 33.8134C108.27 33.2617 108.459 32.6708 108.557 32.0612C108.658 31.4523 108.714 30.8366 108.725 30.2192C108.728 29.9334 108.728 29.6566 108.728 29.371C108.735 29.0367 108.735 28.7042 108.735 28.3645V9.10755C108.735 8.77059 108.735 8.43633 108.728 8.10297C108.728 7.82082 108.728 7.53777 108.725 7.25562C108.714 6.63821 108.658 6.02247 108.557 5.41354C108.459 4.80427 108.27 4.21375 107.997 3.66225C107.438 2.55541 106.553 1.65445 105.464 1.08608C104.92 0.807513 104.338 0.613066 103.738 0.509166C103.14 0.407752 102.535 0.353377 101.928 0.346524C101.653 0.342034 101.37 0.336642 101.094 0.334848C100.769 0.333008 100.439 0.333008 100.113 0.333008V0.333127Z" fill="#A6A6A6"/>
<path d="M8.10546 36.3324C7.82979 36.3324 7.56078 36.3288 7.28727 36.3226C6.72067 36.3151 6.1554 36.2649 5.59609 36.1725C5.07456 36.0812 4.56934 35.9113 4.09709 35.6684C3.62917 35.4275 3.20239 35.1117 2.8331 34.733C2.45847 34.3587 2.14656 33.9247 1.90976 33.448C1.67034 32.9683 1.50465 32.454 1.41846 31.9232C1.32538 31.3528 1.27501 30.7761 1.26781 30.198C1.26207 30.0039 1.25456 29.3578 1.25456 29.3578V8.10243C1.25456 8.10243 1.26256 7.46624 1.26785 7.27934C1.27475 6.70213 1.32482 6.12629 1.41762 5.5568C1.50398 5.02453 1.66979 4.5088 1.90934 4.02746C2.14528 3.55113 2.45545 3.11675 2.82783 2.74118C3.19979 2.36203 3.62793 2.04457 4.09665 1.80038C4.56781 1.55828 5.07208 1.38956 5.59255 1.29989C6.1537 1.20655 6.72094 1.15609 7.28949 1.14893L8.1059 1.1377H101.09L101.916 1.14938C102.479 1.15619 103.041 1.2062 103.597 1.29898C104.123 1.38979 104.633 1.55968 105.109 1.80307C106.048 2.2952 106.812 3.07379 107.294 4.02971C107.53 4.50772 107.693 5.01924 107.778 5.54692C107.872 6.12108 107.925 6.70144 107.936 7.28339C107.938 7.54397 107.938 7.82387 107.938 8.10243C107.946 8.44747 107.946 8.77589 107.946 9.10701V28.364C107.946 28.6983 107.946 29.0244 107.938 29.3533C107.938 29.6525 107.938 29.9266 107.935 30.2087C107.924 30.7803 107.873 31.3503 107.78 31.9142C107.696 32.4488 107.531 32.9671 107.292 33.4508C107.053 33.9223 106.743 34.3526 106.373 34.7258C106.003 35.1065 105.576 35.4242 105.107 35.6666C104.631 35.9114 104.123 36.0819 103.597 36.1725C103.038 36.2654 102.473 36.3156 101.906 36.3226C101.641 36.3288 101.364 36.3324 101.094 36.3324L100.113 36.3343L8.10546 36.3324Z" fill="black"/>
<path d="M22.8755 19.0097C22.8852 18.2418 23.0858 17.4887 23.4586 16.8208C23.8314 16.1528 24.3643 15.5916 25.0077 15.1893C24.5989 14.5957 24.0597 14.1072 23.4329 13.7625C22.806 13.4179 22.1088 13.2267 21.3965 13.204C19.8771 13.0418 18.4042 14.1286 17.63 14.1286C16.8407 14.1286 15.6487 13.2201 14.365 13.247C13.5347 13.2742 12.7255 13.5198 12.0163 13.9597C11.307 14.3995 10.7219 15.0187 10.318 15.7569C8.56812 18.8379 9.87336 23.3659 11.5496 25.8563C12.3882 27.0758 13.3684 28.438 14.6509 28.3897C15.9059 28.3367 16.3746 27.5758 17.8895 27.5758C19.3903 27.5758 19.83 28.3897 21.1386 28.359C22.4852 28.3367 23.3337 27.1341 24.1429 25.903C24.7455 25.0341 25.2092 24.0737 25.5168 23.0575C24.7344 22.721 24.0667 22.1577 23.597 21.4379C23.1273 20.7181 22.8764 19.8736 22.8755 19.0097Z" fill="white"/>
<path d="M20.4038 11.5663C21.1381 10.6699 21.4999 9.51774 21.4123 8.35449C20.2905 8.47431 19.2543 9.01954 18.5101 9.88154C18.1462 10.3026 17.8675 10.7926 17.69 11.3233C17.5124 11.854 17.4395 12.415 17.4753 12.9744C18.0364 12.9803 18.5914 12.8566 19.0987 12.6127C19.606 12.3688 20.0523 12.011 20.4038 11.5663Z" fill="white"/>
<path d="M38.7394 25.3036H34.4566L33.4281 28.3919H31.6142L35.6707 16.9658H37.5554L41.6119 28.3919H39.767L38.7394 25.3036ZM34.9002 23.8785H38.295L36.6215 18.8663H36.5746L34.9002 23.8785Z" fill="white"/>
<path d="M50.3726 24.2281C50.3726 26.8168 49.0101 28.48 46.954 28.48C46.4332 28.5077 45.9152 28.3857 45.4594 28.128C45.0036 27.8702 44.6283 27.4871 44.3766 27.0226H44.3377V31.1487H42.6563V20.0623H44.2839V21.4479H44.3148C44.578 20.9856 44.9596 20.6045 45.4189 20.3451C45.8782 20.0858 46.398 19.9579 46.9231 19.9752C49.0021 19.9752 50.3726 21.6465 50.3726 24.2281ZM48.6443 24.2281C48.6443 22.5415 47.7873 21.4326 46.4795 21.4326C45.1948 21.4326 44.3307 22.5648 44.3307 24.2281C44.3307 25.9066 45.1948 27.0307 46.4795 27.0307C47.7873 27.0307 48.6443 25.9299 48.6443 24.2281Z" fill="white"/>
<path d="M59.3887 24.228C59.3887 26.8168 58.0262 28.48 55.9702 28.48C55.4493 28.5077 54.9313 28.3857 54.4755 28.128C54.0197 27.8702 53.6444 27.4871 53.3927 27.0225H53.3538V31.1487H51.6724V20.0623H53.2999V21.4479H53.3309C53.5941 20.9856 53.9757 20.6045 54.435 20.3451C54.8943 20.0858 55.4141 19.9579 55.9392 19.9752C58.0183 19.9752 59.3887 21.6465 59.3887 24.228ZM57.6604 24.228C57.6604 22.5415 56.8034 21.4326 55.4957 21.4326C54.2109 21.4326 53.3468 22.5648 53.3468 24.228C53.3468 25.9066 54.2109 27.0307 55.4957 27.0307C56.8034 27.0307 57.6605 25.9299 57.6605 24.228H57.6604Z" fill="white"/>
<path d="M65.3473 25.2084C65.4719 26.3415 66.5543 27.0855 68.0334 27.0855C69.4507 27.0855 70.4703 26.3415 70.4703 25.3198C70.4703 24.4329 69.8553 23.9019 68.3992 23.538L66.9431 23.1812C64.8799 22.6744 63.9221 21.6932 63.9221 20.101C63.9221 18.1295 65.6115 16.7754 68.0104 16.7754C70.3846 16.7754 72.0122 18.1295 72.0669 20.101H70.3696C70.268 18.9607 69.3411 18.2724 67.9865 18.2724C66.632 18.2724 65.7051 18.9688 65.7051 19.9824C65.7051 20.7902 66.2971 21.2655 67.7453 21.6294L68.9832 21.9385C71.2885 22.4929 72.2463 23.4346 72.2463 25.1059C72.2463 27.2436 70.5719 28.5824 67.9088 28.5824C65.4171 28.5824 63.7347 27.275 63.6261 25.2083L65.3473 25.2084Z" fill="white"/>
<path d="M75.8754 18.0908V20.0623H77.4332V21.4164H75.8754V26.0089C75.8754 26.7224 76.1873 27.0548 76.8721 27.0548C77.057 27.0516 77.2417 27.0384 77.4252 27.0153V28.3613C77.1174 28.4198 76.8044 28.4463 76.4913 28.4404C74.8328 28.4404 74.186 27.8069 74.186 26.1913V21.4164H72.9949V20.0623H74.186V18.0908H75.8754Z" fill="white"/>
<path d="M78.3354 24.2281C78.3354 21.607 79.8534 19.96 82.2205 19.96C84.5956 19.96 86.1065 21.607 86.1065 24.2281C86.1065 26.8564 84.6035 28.4963 82.2205 28.4963C79.8383 28.4963 78.3354 26.8564 78.3354 24.2281ZM84.3932 24.2281C84.3932 22.4301 83.583 21.3689 82.2205 21.3689C80.858 21.3689 80.0487 22.4382 80.0487 24.2281C80.0487 26.0333 80.858 27.0864 82.2205 27.0864C83.583 27.0864 84.3932 26.0333 84.3932 24.2281H84.3932Z" fill="white"/>
<path d="M87.4929 20.0623H89.0966V21.4802H89.1355C89.244 21.0373 89.4991 20.646 89.8579 20.3719C90.2168 20.0978 90.6574 19.9577 91.1059 19.9751C91.2997 19.9744 91.4929 19.9958 91.682 20.0389V21.6383C91.4373 21.5623 91.1822 21.5274 90.9265 21.535C90.6822 21.5249 90.4387 21.5687 90.2126 21.6634C89.9866 21.758 89.7833 21.9013 89.6169 22.0834C89.4504 22.2655 89.3247 22.4821 89.2483 22.7182C89.1719 22.9544 89.1467 23.2046 89.1743 23.4516V28.3928H87.4929L87.4929 20.0623Z" fill="white"/>
<path d="M99.4344 25.9462C99.2082 27.4584 97.76 28.4963 95.9071 28.4963C93.5241 28.4963 92.045 26.8726 92.045 24.2676C92.045 21.6546 93.5321 19.96 95.8365 19.96C98.1028 19.96 99.5281 21.5432 99.5281 24.0691V24.6549H93.7424V24.7583C93.7157 25.0648 93.7534 25.3737 93.8531 25.6643C93.9528 25.9549 94.1121 26.2206 94.3206 26.4438C94.529 26.667 94.7817 26.8425 95.062 26.9587C95.3422 27.0749 95.6436 27.1292 95.946 27.1179C96.3434 27.1557 96.7421 27.0621 97.083 26.851C97.4238 26.6399 97.6885 26.3226 97.8378 25.9461L99.4344 25.9462ZM93.7503 23.4598H97.8457C97.8608 23.1842 97.8197 22.9083 97.725 22.6496C97.6303 22.3908 97.484 22.1548 97.2953 21.9562C97.1067 21.7577 96.8797 21.601 96.6286 21.4959C96.3776 21.3908 96.1079 21.3396 95.8365 21.3455C95.5626 21.3439 95.2912 21.3974 95.0378 21.503C94.7844 21.6085 94.5541 21.7641 94.3602 21.9607C94.1662 22.1572 94.0125 22.3909 93.9078 22.6482C93.8031 22.9055 93.7496 23.1814 93.7503 23.4599V23.4598Z" fill="white"/>
<path d="M34.6895 8.36463C35.042 8.3389 35.3957 8.39306 35.7252 8.5232C36.0546 8.65333 36.3516 8.8562 36.5946 9.11717C36.8376 9.37814 37.0206 9.69071 37.1305 10.0323C37.2403 10.3739 37.2742 10.7361 37.2298 11.0926C37.2298 12.8466 36.2976 13.8549 34.6895 13.8549H32.7394V8.36463H34.6895ZM33.5779 13.0784H34.5958C34.8477 13.0937 35.0998 13.0517 35.3337 12.9555C35.5676 12.8592 35.7775 12.7111 35.9481 12.522C36.1186 12.3328 36.2455 12.1074 36.3196 11.8621C36.3937 11.6168 36.413 11.3577 36.3762 11.1038C36.4103 10.851 36.389 10.5935 36.3138 10.35C36.2386 10.1065 36.1114 9.88289 35.9412 9.69525C35.7711 9.50761 35.5622 9.36057 35.3296 9.26466C35.097 9.16875 34.8464 9.12634 34.5958 9.14049H33.5779V13.0784Z" fill="white"/>
<path d="M38.177 11.7806C38.1514 11.5083 38.182 11.2336 38.2669 10.9741C38.3519 10.7145 38.4892 10.4759 38.6701 10.2735C38.851 10.0711 39.0715 9.90936 39.3174 9.7987C39.5634 9.68803 39.8294 9.63086 40.0984 9.63086C40.3673 9.63086 40.6333 9.68803 40.8793 9.7987C41.1253 9.90936 41.3458 10.0711 41.5267 10.2735C41.7076 10.4759 41.8449 10.7145 41.9298 10.9741C42.0147 11.2336 42.0453 11.5083 42.0197 11.7806C42.0458 12.0532 42.0156 12.3283 41.9309 12.5882C41.8462 12.8482 41.709 13.0873 41.528 13.2901C41.3471 13.4929 41.1264 13.6549 40.8802 13.7658C40.634 13.8768 40.3677 13.934 40.0984 13.934C39.8291 13.934 39.5628 13.8768 39.3166 13.7658C39.0704 13.6549 38.8497 13.4929 38.6687 13.2901C38.4878 13.0873 38.3506 12.8482 38.2659 12.5882C38.1812 12.3283 38.1509 12.0532 38.177 11.7806ZM41.1927 11.7806C41.1927 10.8825 40.796 10.3573 40.0997 10.3573C39.4008 10.3573 39.0076 10.8825 39.0076 11.7806C39.0076 12.6859 39.4008 13.2071 40.0997 13.2071C40.796 13.2071 41.1927 12.6823 41.1927 11.7806H41.1927Z" fill="white"/>
<path d="M47.1277 13.8542H46.2936L45.4515 10.8027H45.3879L44.5494 13.8542H43.7232L42.6002 9.71094H43.4157L44.1456 12.8725H44.2057L45.0433 9.71094H45.8147L46.6523 12.8725H46.7159L47.4422 9.71094H48.2463L47.1277 13.8542Z" fill="white"/>
<path d="M49.1908 9.71199H49.9649V10.3702H50.0249C50.1269 10.1338 50.2988 9.93561 50.5167 9.80329C50.7347 9.67097 50.9878 9.61109 51.2408 9.63201C51.439 9.61685 51.638 9.64725 51.8232 9.72095C52.0083 9.79464 52.1747 9.90976 52.3102 10.0578C52.4456 10.2057 52.5465 10.3828 52.6055 10.5759C52.6645 10.769 52.6801 10.973 52.651 11.173V13.8552H51.8469V11.3784C51.8469 10.7125 51.5624 10.3814 50.9677 10.3814C50.8331 10.375 50.6988 10.3983 50.5739 10.4497C50.449 10.5011 50.3364 10.5793 50.244 10.679C50.1516 10.7788 50.0815 10.8976 50.0385 11.0275C49.9955 11.1573 49.9806 11.2951 49.9949 11.4314V13.8552H49.1908L49.1908 9.71199Z" fill="white"/>
<path d="M53.9321 8.09375H54.7362V13.8544H53.9321V8.09375Z" fill="white"/>
<path d="M55.854 11.7807C55.8284 11.5084 55.8591 11.2337 55.944 10.9741C56.0289 10.7146 56.1662 10.4759 56.3472 10.2735C56.5281 10.0711 56.7486 9.90937 56.9946 9.7987C57.2406 9.68803 57.5066 9.63086 57.7756 9.63086C58.0446 9.63086 58.3106 9.68803 58.5566 9.7987C58.8025 9.90937 59.0231 10.0711 59.204 10.2735C59.3849 10.4759 59.5222 10.7146 59.6072 10.9741C59.6921 11.2337 59.7227 11.5084 59.6972 11.7807C59.7232 12.0533 59.6929 12.3284 59.6082 12.5883C59.5235 12.8483 59.3863 13.0873 59.2053 13.2901C59.0243 13.4929 58.8036 13.655 58.5574 13.7659C58.3112 13.8768 58.0449 13.9341 57.7756 13.9341C57.5063 13.9341 57.24 13.8768 56.9937 13.7659C56.7475 13.655 56.5268 13.4929 56.3459 13.2901C56.1649 13.0873 56.0276 12.8483 55.9429 12.5883C55.8582 12.3284 55.8279 12.0533 55.854 11.7807ZM58.8697 11.7807C58.8697 10.8826 58.4729 10.3574 57.7767 10.3574C57.0778 10.3574 56.6846 10.8826 56.6846 11.7807C56.6846 12.686 57.0778 13.2072 57.7767 13.2072C58.4729 13.2072 58.8697 12.6824 58.8697 11.7807H58.8697Z" fill="white"/>
<path d="M60.5435 12.6824C60.5435 11.9366 61.0896 11.5066 62.0589 11.4455L63.1625 11.3808V11.0232C63.1625 10.5856 62.878 10.3385 62.3284 10.3385C61.8795 10.3385 61.5685 10.5061 61.4793 10.799H60.7008C60.783 10.0873 61.4413 9.63086 62.3655 9.63086C63.3869 9.63086 63.963 10.148 63.963 11.0232V13.8541H63.189V13.2718H63.1254C62.9962 13.4807 62.8149 13.6509 62.5999 13.7652C62.3849 13.8795 62.144 13.9337 61.9016 13.9223C61.7306 13.9404 61.5577 13.9219 61.3942 13.8679C61.2306 13.8139 61.08 13.7256 60.9521 13.6088C60.8241 13.4919 60.7216 13.3491 60.6513 13.1896C60.5809 13.03 60.5442 12.8572 60.5435 12.6824ZM63.1625 12.3283V11.9819L62.1676 12.0466C61.6065 12.0848 61.352 12.2789 61.352 12.6442C61.352 13.0171 61.6701 13.2341 62.1075 13.2341C62.2357 13.2473 62.3651 13.2341 62.4882 13.1954C62.6112 13.1566 62.7254 13.0931 62.8238 13.0086C62.9222 12.9241 63.0029 12.8203 63.0611 12.7035C63.1193 12.5866 63.1538 12.459 63.1625 12.3283Z" fill="white"/>
<path d="M65.0197 11.781C65.0197 10.4718 65.6816 9.64243 66.7109 9.64243C66.9655 9.6305 67.2182 9.69252 67.4395 9.82124C67.6607 9.94996 67.8414 10.1401 67.9603 10.3693H68.0204V8.09375H68.8245V13.8544H68.054V13.1998H67.9904C67.8622 13.4275 67.6753 13.6153 67.4498 13.7427C67.2243 13.8701 66.9687 13.9324 66.7109 13.9227C65.6745 13.9227 65.0197 13.0933 65.0197 11.781ZM65.8503 11.781C65.8503 12.6598 66.2577 13.1886 66.9389 13.1886C67.6166 13.1886 68.0354 12.6522 68.0354 11.7846C68.0354 10.9211 67.6122 10.377 66.9389 10.377C66.2621 10.377 65.8503 10.9094 65.8503 11.781H65.8503Z" fill="white"/>
<path d="M72.1511 11.7806C72.1255 11.5083 72.1562 11.2336 72.2411 10.9741C72.326 10.7145 72.4633 10.4759 72.6442 10.2735C72.8251 10.0711 73.0456 9.90936 73.2916 9.7987C73.5375 9.68803 73.8035 9.63086 74.0725 9.63086C74.3415 9.63086 74.6075 9.68803 74.8534 9.7987C75.0994 9.90936 75.3199 10.0711 75.5008 10.2735C75.6817 10.4759 75.819 10.7145 75.9039 10.9741C75.9888 11.2336 76.0195 11.5083 75.9939 11.7806C76.02 12.0532 75.9897 12.3283 75.905 12.5882C75.8203 12.8482 75.6831 13.0873 75.5021 13.2901C75.3212 13.4929 75.1005 13.6549 74.8543 13.7658C74.6081 13.8768 74.3418 13.934 74.0725 13.934C73.8032 13.934 73.5369 13.8768 73.2907 13.7658C73.0445 13.6549 72.8238 13.4929 72.6428 13.2901C72.4619 13.0873 72.3247 12.8482 72.24 12.5882C72.1553 12.3283 72.125 12.0532 72.1511 11.7806ZM75.1668 11.7806C75.1668 10.8825 74.7701 10.3573 74.0738 10.3573C73.3749 10.3573 72.9817 10.8825 72.9817 11.7806C72.9817 12.6859 73.3749 13.2071 74.0738 13.2071C74.7701 13.2071 75.1668 12.6823 75.1668 11.7806Z" fill="white"/>
<path d="M77.0728 9.71199H77.8469V10.3702H77.907C78.0089 10.1338 78.1808 9.93561 78.3987 9.80329C78.6167 9.67097 78.8698 9.61109 79.1228 9.63201C79.321 9.61685 79.5201 9.64725 79.7052 9.72095C79.8903 9.79464 80.0567 9.90976 80.1922 10.0578C80.3276 10.2057 80.4285 10.3828 80.4875 10.5759C80.5465 10.769 80.5621 10.973 80.533 11.173V13.8552H79.7289V11.3784C79.7289 10.7125 79.4444 10.3814 78.8497 10.3814C78.7151 10.375 78.5808 10.3983 78.4559 10.4497C78.331 10.5011 78.2184 10.5793 78.126 10.679C78.0336 10.7788 77.9635 10.8976 77.9205 11.0275C77.8775 11.1573 77.8626 11.2951 77.8769 11.4314V13.8552H77.0728V9.71199Z" fill="white"/>
<path d="M85.0763 8.67969V9.7301H85.959V10.4189H85.0763V12.5493C85.0763 12.9833 85.2522 13.1734 85.6524 13.1734C85.7549 13.173 85.8573 13.1667 85.959 13.1545V13.8356C85.8146 13.8619 85.6683 13.8759 85.5217 13.8774C84.6275 13.8774 84.2714 13.5575 84.2714 12.7587V10.4188H83.6246V9.73006H84.2714V8.67969H85.0763Z" fill="white"/>
<path d="M87.0573 8.09375H87.8543V10.377H87.9179C88.0248 10.1384 88.2015 9.93909 88.4238 9.80628C88.6461 9.67346 88.9032 9.61357 89.1602 9.63478C89.3574 9.62387 89.5546 9.65735 89.7376 9.73284C89.9206 9.80833 90.085 9.92396 90.219 10.0715C90.353 10.219 90.4534 10.3948 90.5129 10.5863C90.5724 10.7778 90.5896 10.9803 90.5634 11.1794V13.8544H89.7585V11.3811C89.7585 10.7193 89.4554 10.3842 88.8873 10.3842C88.7491 10.3726 88.6101 10.392 88.48 10.4408C88.3499 10.4896 88.2319 10.5667 88.1342 10.6668C88.0364 10.7668 87.9614 10.8874 87.9143 11.02C87.8672 11.1526 87.8492 11.2941 87.8614 11.4346V13.8544H87.0574L87.0573 8.09375Z" fill="white"/>
<path d="M95.2516 12.7354C95.1423 13.1141 94.9056 13.4417 94.5829 13.6608C94.2602 13.8799 93.872 13.9767 93.4862 13.9341C93.2178 13.9413 92.951 13.889 92.7044 13.7809C92.4579 13.6728 92.2374 13.5114 92.0584 13.3079C91.8793 13.1044 91.7459 12.8637 91.6675 12.6026C91.589 12.3414 91.5674 12.0661 91.6041 11.7956C91.5684 11.5242 91.5904 11.2483 91.6686 10.9863C91.7469 10.7244 91.8796 10.4826 92.0577 10.2773C92.2358 10.0721 92.4552 9.90815 92.7011 9.79663C92.9469 9.6851 93.2134 9.62859 93.4826 9.63093C94.6163 9.63093 95.3002 10.4186 95.3002 11.7196V12.0049H92.4232V12.0508C92.4106 12.2028 92.4294 12.3558 92.4784 12.5001C92.5274 12.6443 92.6054 12.7765 92.7076 12.8883C92.8097 13 92.9337 13.0889 93.0716 13.149C93.2095 13.2092 93.3582 13.2394 93.5083 13.2377C93.7006 13.2612 93.8954 13.226 94.068 13.1365C94.2406 13.0471 94.3832 12.9075 94.4775 12.7354L95.2516 12.7354ZM92.4232 11.4002H94.4811C94.4912 11.2611 94.4726 11.1215 94.4265 10.9901C94.3804 10.8588 94.3078 10.7388 94.2133 10.6377C94.1189 10.5366 94.0047 10.4567 93.8781 10.4032C93.7515 10.3497 93.6153 10.3237 93.4782 10.3269C93.3391 10.3251 93.2011 10.3516 93.0723 10.405C92.9435 10.4583 92.8265 10.5373 92.7282 10.6373C92.6298 10.7373 92.5522 10.8564 92.4998 10.9874C92.4475 11.1184 92.4214 11.2588 92.4232 11.4002H92.4232Z" fill="white"/>
</svg>
