<svg width="20" height="21" viewBox="0 0 20 21" fill="none" xmlns="http://www.w3.org/2000/svg">
<rect y="0.665039" width="20" height="20" rx="10" fill="#F1F0FF"/>
<path d="M9.855 14.775C9.51767 14.775 9.18033 14.7384 8.843 14.665C8.513 14.5917 8.20133 14.489 7.908 14.357C7.622 14.225 7.37633 14.0674 7.171 13.884L7.633 12.817C7.97767 13.0737 8.32967 13.268 8.689 13.4C9.05567 13.5247 9.437 13.587 9.833 13.587C10.3097 13.587 10.68 13.4697 10.944 13.235C11.2153 12.993 11.351 12.6704 11.351 12.267C11.351 11.8564 11.2227 11.5264 10.966 11.277C10.7093 11.0204 10.3573 10.892 9.91 10.892C9.59467 10.892 9.305 10.9544 9.041 11.079C8.78433 11.1964 8.55333 11.3797 8.348 11.629H7.413V6.91004H12.231V8.07604H8.755V10.54H8.414C8.60467 10.2834 8.85767 10.0854 9.173 9.94604C9.49567 9.80671 9.855 9.73704 10.251 9.73704C10.7497 9.73704 11.1823 9.83971 11.549 10.045C11.9157 10.2504 12.2017 10.54 12.407 10.914C12.6123 11.2807 12.715 11.7134 12.715 12.212C12.715 12.718 12.5977 13.1654 12.363 13.554C12.1357 13.9354 11.8057 14.236 11.373 14.456C10.9477 14.6687 10.4417 14.775 9.855 14.775Z" fill="#665CD1"/>
</svg>
