<svg width="21" height="21" viewBox="0 0 21 21" fill="none" xmlns="http://www.w3.org/2000/svg">
<g clip-path="url(#clip0_2498_4003)">
<path d="M14.6667 1.94238H6.33335C4.03217 1.94238 2.16669 3.80786 2.16669 6.10905V14.4424C2.16669 16.7436 4.03217 18.609 6.33335 18.609H14.6667C16.9679 18.609 18.8334 16.7436 18.8334 14.4424V6.10905C18.8334 3.80786 16.9679 1.94238 14.6667 1.94238Z" stroke="#665CD1" stroke-width="1.33333" stroke-linecap="round" stroke-linejoin="round"/>
<path d="M13.8334 9.75064C13.9362 10.4442 13.8178 11.1525 13.4948 11.7748C13.1719 12.3972 12.661 12.9018 12.0347 13.217C11.4085 13.5323 10.6987 13.642 10.0065 13.5306C9.31431 13.4192 8.67484 13.0924 8.17907 12.5966C7.6833 12.1008 7.35648 11.4614 7.2451 10.7692C7.13371 10.0769 7.24343 9.36722 7.55865 8.74095C7.87386 8.11469 8.37853 7.60376 9.00086 7.28084C9.62319 6.95793 10.3315 6.83947 11.025 6.94231C11.7325 7.04721 12.3874 7.37686 12.8931 7.88256C13.3988 8.38827 13.7285 9.04321 13.8334 9.75064Z" stroke="#665CD1" stroke-width="1.33333" stroke-linecap="round" stroke-linejoin="round"/>
<path d="M15.0834 5.69238H15.0917" stroke="#665CD1" stroke-width="1.33333" stroke-linecap="round" stroke-linejoin="round"/>
</g>
<defs>
<clipPath id="clip0_2498_4003">
<rect width="20" height="20" fill="white" transform="translate(0.5 0.275391)"/>
</clipPath>
</defs>
</svg>
