<svg width="72" height="66" viewBox="0 0 72 66" fill="none" xmlns="http://www.w3.org/2000/svg">
<path d="M43.8188 65.5156C38.5872 65.5156 33.4111 65.5156 28.1858 65.5156C28.1858 65.2891 28.1858 65.088 28.1858 64.8868C28.1851 51.7354 28.1869 38.584 28.1807 25.4327C28.1798 23.5149 28.0293 21.6097 27.3932 19.7812C26.7705 17.9912 25.7156 16.5969 23.7799 16.0901C22.5147 15.7588 21.2421 15.7667 19.995 16.1706C18.1344 16.7733 17.1763 18.2099 16.5961 19.9657C16.0705 21.5564 15.8891 23.2067 15.8864 24.8687C15.8648 38.1777 15.8599 51.4866 15.85 64.7956C15.8499 65.0162 15.85 65.2367 15.85 65.4982C10.6523 65.4982 5.47771 65.4982 0.227 65.4982C0.227 65.341 0.22701 65.1746 0.226999 65.0083C0.226061 51.7305 0.203292 38.4526 0.236449 25.1748C0.247518 20.7419 0.974412 16.4222 2.95614 12.4048C6.15174 5.92669 11.3551 2.08025 18.4614 0.85771C22.3982 0.180422 26.2718 0.481419 29.9995 2.00671C32.3221 2.95704 34.3029 4.38576 35.8568 6.37647C35.8956 6.42623 35.9332 6.477 35.9087 6.44465C36.8912 5.54847 37.7967 4.59314 38.8302 3.80586C41.2675 1.94914 44.0982 1.03064 47.1104 0.695219C52.0407 0.146183 56.7144 0.989813 61.0113 3.53593C65.6555 6.28785 68.6072 10.384 70.2798 15.4566C71.2467 18.3891 71.7327 21.4123 71.7403 24.4921C71.7736 38.0379 71.7714 51.5839 71.7815 65.1299C71.7815 65.2391 71.7725 65.3483 71.7659 65.5003C66.5803 65.5003 61.4062 65.5003 56.15 65.5003C56.15 65.3086 56.1501 65.0958 56.15 64.883C56.1492 51.7949 56.1532 38.7067 56.1419 25.6186C56.1404 23.8004 56.0501 21.9766 55.4759 20.2339C55.2171 19.4485 54.8753 18.6594 54.4146 17.9778C53.2379 16.2369 51.4556 15.7479 49.4719 15.8955C46.772 16.0964 45.1573 17.5833 44.3922 20.4684C43.9679 22.0683 43.8236 23.7017 43.8231 25.3489C43.8186 38.5161 43.8195 51.6833 43.8188 64.8505C43.8188 65.0548 43.8188 65.2591 43.8188 65.5156Z" fill="#F1F0FF"/>
</svg>
