<svg width="66" height="66" viewBox="0 0 66 66" fill="none" xmlns="http://www.w3.org/2000/svg">
<path d="M65.6111 32.1874C65.4549 42.0814 62.275 50.051 55.5883 56.5184C50.8852 61.0671 45.2492 63.9008 38.7727 64.9955C30.8768 66.3301 23.3852 65.1283 16.4956 61.0194C8.42861 56.2083 3.42037 49.1243 1.42998 40.006C-0.216161 32.4648 0.588215 25.1277 4.12693 18.2391C8.98622 8.77994 16.7421 2.91867 27.284 1.07756C37.8132 -0.761338 47.213 1.91458 55.157 9.08245C60.7717 14.1485 64.0817 20.5193 65.2046 27.9787C65.4471 29.5894 65.5212 31.2252 65.6111 32.1874ZM33.8313 15.5176C30.4451 15.5324 27.8901 16.1154 25.5213 17.3761C18.1213 21.3145 14.5037 29.4244 16.5056 37.5227C18.5899 45.9545 26.8337 51.5544 35.4155 50.3677C43.1594 49.2969 49.4956 42.6501 50.1989 34.8662C50.5872 30.5691 49.5763 26.6176 47.0905 23.0932C43.7089 18.2986 39.0655 15.7136 33.8313 15.5176Z" fill="#665CD1"/>
</svg>
