<svg width="72" height="66" viewBox="0 0 72 66" fill="none" xmlns="http://www.w3.org/2000/svg">
<path d="M43.8256 14.0445C43.8256 14.269 43.8256 14.4736 43.8256 14.6782C43.8251 23.3981 43.8176 32.118 43.8293 40.8379C43.8321 42.8529 44.021 44.8512 44.7984 46.7405C46.2025 50.1531 50.6354 51.3382 53.5048 49.0655C54.7861 48.0507 55.3904 46.618 55.6728 45.0778C55.9214 43.7215 56.1112 42.3321 56.1144 40.9568C56.1453 27.7256 56.1312 14.4942 56.1299 1.26293C56.1299 1.02573 56.1299 0.788526 56.1299 0.515625C61.3416 0.515625 66.5154 0.515625 71.7726 0.515625C71.7726 0.666119 71.7726 0.832555 71.7726 0.998991C71.7718 14.4216 71.7969 27.8443 71.7561 41.2668C71.7418 45.9783 70.8263 50.5185 68.5112 54.6832C65.2612 60.5297 60.2754 63.9814 53.7182 65.1488C49.7843 65.8492 45.9109 65.5736 42.1678 64.0891C39.8132 63.1553 37.8071 61.7291 36.2124 59.7459C36.1543 59.6735 36.093 59.6037 36.0224 59.52C35.5443 60.0353 35.1032 60.5579 34.6136 61.0303C32.2918 63.2712 29.4736 64.5602 26.3352 65.1022C20.0847 66.1815 14.282 65.0571 9.13355 61.2407C5.12386 58.2684 2.7153 54.1969 1.37636 49.4481C0.571481 46.5933 0.228698 43.6715 0.226604 40.7124C0.21732 27.5289 0.221381 14.3454 0.220599 1.16193C0.220599 0.957602 0.220599 0.753271 0.220599 0.516439C5.44379 0.516439 10.6301 0.516439 15.8767 0.516439C15.8767 0.732534 15.8768 0.934659 15.8768 1.13679C15.8758 14.4159 15.8727 27.6951 15.8767 40.9742C15.8772 42.7821 16.0623 44.5687 16.6615 46.2899C17.8941 49.8304 21.7941 51.3137 24.9874 49.4477C26.4151 48.6133 27.1214 47.2547 27.562 45.7335C28.0173 44.1615 28.1683 42.5454 28.1686 40.9143C28.17 32.1785 28.1684 23.4426 28.1678 14.7068C28.1678 14.5004 28.1678 14.2941 28.1678 14.0445C33.3807 14.0445 38.5662 14.0445 43.8256 14.0445Z" fill="#665CD1"/>
</svg>
