<svg width="93" height="20" viewBox="0 0 93 20" fill="none" xmlns="http://www.w3.org/2000/svg">
<path d="M13.3234 19.9501C11.7247 19.9501 10.143 19.9501 8.54624 19.9501C8.54624 19.8809 8.54625 19.8194 8.54624 19.7579C8.54601 15.7391 8.54657 11.7203 8.54469 7.70154C8.54441 7.11551 8.49841 6.53331 8.30404 5.97458C8.11374 5.42759 7.79139 5.00152 7.19987 4.84663C6.81328 4.7454 6.42437 4.74781 6.04328 4.87124C5.47473 5.05541 5.18195 5.49442 5.00467 6.03093C4.84404 6.51704 4.7886 7.02133 4.78778 7.5292C4.78118 11.5962 4.77971 15.6631 4.77667 19.7301C4.77662 19.7974 4.77667 19.8648 4.77667 19.9448C3.18835 19.9448 1.60711 19.9448 0.0025956 19.9448C0.0025956 19.8967 0.00259883 19.8459 0.00259524 19.795C0.00230858 15.7376 -0.004649 11.6802 0.00548296 7.62274C0.00886555 6.26815 0.230989 4.94812 0.836564 3.7205C1.81308 1.74091 3.40312 0.565519 5.57464 0.191937C6.77767 -0.015029 7.96135 0.0769498 9.10047 0.543049C9.8102 0.83345 10.4155 1.27004 10.8903 1.87836C10.9022 1.89356 10.9137 1.90908 10.9062 1.89919C11.2064 1.62534 11.4831 1.33341 11.7989 1.09283C12.5438 0.525455 13.4087 0.244781 14.3292 0.142283C15.8358 -0.0254915 17.264 0.232304 18.577 1.01035C19.9962 1.85128 20.8982 3.10298 21.4093 4.65305C21.7048 5.54916 21.8533 6.473 21.8556 7.41411C21.8658 11.5535 21.8651 15.6928 21.8682 19.8322C21.8682 19.8656 21.8654 19.899 21.8634 19.9454C20.2788 19.9454 18.6977 19.9454 17.0915 19.9454C17.0915 19.8868 17.0915 19.8218 17.0915 19.7568C17.0913 15.7573 17.0925 11.7578 17.0891 7.75835C17.0886 7.20275 17.061 6.64544 16.8855 6.1129C16.8065 5.87291 16.702 5.63177 16.5612 5.42348C16.2017 4.89149 15.657 4.74208 15.0508 4.78719C14.2258 4.84858 13.7324 5.30295 13.4986 6.18456C13.3689 6.67345 13.3248 7.17259 13.3247 7.67596C13.3233 11.6996 13.3236 15.7232 13.3234 19.7468C13.3234 19.8093 13.3234 19.8717 13.3234 19.9501Z" fill="#EBEBEB"/>
<path d="M45.2477 10.4839C45.2162 12.7565 44.2564 15.19 42.2445 17.1749C40.8251 18.5753 39.119 19.4522 37.1564 19.8115C35.0016 20.206 32.924 19.9482 30.9534 18.9842C29.0097 18.0333 27.5425 16.5791 26.5443 14.6596C25.7135 13.0621 25.3457 11.3542 25.4238 9.5598C25.5339 7.03054 26.4412 4.8238 28.2047 2.99517C29.7699 1.37225 31.6837 0.410092 33.9172 0.102073C35.9506 -0.178365 37.9012 0.115334 39.7443 1.02929C41.6491 1.9739 43.1034 3.39293 44.1019 5.27037C44.8779 6.72933 45.2522 8.29084 45.2477 10.4839ZM35.1718 15.9473C35.2035 15.8602 35.2214 15.8167 35.2353 15.772C35.6712 14.3628 36.1078 12.9539 36.5405 11.5437C36.5705 11.4459 36.6158 11.3944 36.7168 11.3637C37.6114 11.0913 38.5042 10.8128 39.3974 10.5356C39.9627 10.3602 40.5278 10.1839 41.1187 9.99995C41.046 9.97198 40.9987 9.95055 40.9494 9.93525C39.5407 9.49794 38.1323 9.05967 36.722 8.62758C36.6143 8.5946 36.5702 8.54018 36.539 8.43862C36.1061 7.0286 35.669 5.61982 35.2326 4.21087C35.2193 4.1679 35.2013 4.12638 35.1743 4.05421C35.1488 4.12546 35.1346 4.1608 35.1234 4.19705C34.6867 5.6061 34.2493 7.0149 33.816 8.42496C33.7818 8.53628 33.7311 8.59595 33.613 8.63206C32.2807 9.03944 30.9506 9.45421 29.62 9.86731C29.4973 9.9054 29.3752 9.9456 29.2234 9.99425C29.2964 10.0193 29.3364 10.0342 29.3772 10.0468C30.7814 10.482 32.1852 10.9187 33.5909 11.3489C33.7215 11.3888 33.7831 11.4529 33.8222 11.5841C34.0285 12.277 34.2463 12.9666 34.4606 13.6572C34.6932 14.4072 34.9263 15.157 35.1718 15.9473Z" fill="#EBEBEB"/>
<path d="M84.3242 4.239C84.3242 4.30702 84.3242 4.36901 84.3242 4.43101C84.324 7.07321 84.3217 9.71541 84.3253 12.3576C84.3261 12.9682 84.3834 13.5737 84.6189 14.1461C85.0444 15.1802 86.3876 15.5393 87.257 14.8506C87.6453 14.5431 87.8284 14.109 87.9139 13.6423C87.9893 13.2314 88.0468 12.8104 88.0478 12.3936C88.0571 8.38447 88.0528 4.37527 88.0525 0.366088C88.0525 0.294214 88.0525 0.22234 88.0525 0.139648C89.6316 0.139648 91.1994 0.139648 92.7923 0.139648C92.7923 0.185249 92.7923 0.235681 92.7923 0.286112C92.7921 4.35326 92.7997 8.42044 92.7873 12.4875C92.783 13.9152 92.5056 15.2909 91.8041 16.5528C90.8193 18.3244 89.3086 19.3702 87.3217 19.724C86.1297 19.9362 84.956 19.8527 83.8218 19.4029C83.1084 19.1199 82.5005 18.6878 82.0173 18.0869C81.9997 18.0649 81.9811 18.0438 81.9597 18.0184C81.8149 18.1745 81.6812 18.3329 81.5329 18.4761C80.8293 19.1551 79.9754 19.5456 79.0244 19.7099C77.1305 20.0369 75.3722 19.6962 73.8122 18.5398C72.5972 17.6392 71.8674 16.4055 71.4617 14.9666C71.2178 14.1015 71.114 13.2162 71.1133 12.3196C71.1105 8.32488 71.1118 4.33018 71.1115 0.335485C71.1115 0.273571 71.1115 0.211657 71.1115 0.139895C72.6942 0.139895 74.2657 0.139895 75.8554 0.139895C75.8554 0.205374 75.8555 0.266619 75.8555 0.327865C75.8552 4.35154 75.8542 8.37522 75.8554 12.3989C75.8556 12.9467 75.9117 13.4881 76.0932 14.0096C76.4667 15.0824 77.6484 15.5319 78.616 14.9664C79.0487 14.7136 79.2627 14.3019 79.3962 13.841C79.5341 13.3647 79.5799 12.875 79.58 12.3808C79.5804 9.73373 79.5799 7.0867 79.5797 4.43967C79.5797 4.37715 79.5797 4.31463 79.5797 4.239C81.1593 4.239 82.7305 4.239 84.3242 4.239Z" fill="#EBEBEB"/>
<path d="M68.1331 9.75759C68.0854 12.7982 67.1145 15.2473 65.0729 17.2348C63.6369 18.6327 61.9161 19.5035 59.9386 19.84C57.5277 20.2501 55.2403 19.8808 53.1367 18.6181C50.6737 17.1395 49.1445 14.9625 48.5368 12.1603C48.0342 9.84282 48.2798 7.58803 49.3602 5.47109C50.8439 2.56415 53.212 0.762902 56.4307 0.197104C59.6456 -0.368014 62.5156 0.454331 64.9412 2.65712C66.6555 4.21399 67.6662 6.17181 68.009 8.46418C68.083 8.95919 68.1057 9.46189 68.1331 9.75759ZM58.4298 4.63474C57.3959 4.63929 56.6158 4.81844 55.8926 5.20587C53.6331 6.41619 52.5286 8.90849 53.1398 11.3972C53.7762 13.9884 56.2933 15.7093 58.9135 15.3447C61.278 15.0156 63.2126 12.9729 63.4273 10.5808C63.5459 9.26026 63.2372 8.04592 62.4783 6.96281C61.4457 5.48938 60.028 4.69497 58.4298 4.63474Z" fill="#EBEBEB"/>
</svg>
