<svg width="20" height="107" viewBox="0 0 20 107" fill="none" xmlns="http://www.w3.org/2000/svg">
<path d="M12.1852 18.6814C10.7231 18.6814 9.27647 18.6814 7.81615 18.6814C7.81615 18.6181 7.81615 18.5619 7.81615 18.5057C7.81594 14.8302 7.81644 11.1548 7.81472 7.47929C7.81447 6.94332 7.7724 6.41087 7.59463 5.89987C7.42059 5.3996 7.12578 5.00993 6.58479 4.86828C6.23123 4.7757 5.87555 4.77789 5.52701 4.89079C5.00703 5.05922 4.73926 5.46073 4.57712 5.95141C4.43021 6.39599 4.37951 6.85719 4.37876 7.32168C4.37273 11.0412 4.37138 14.7607 4.36861 18.4802C4.36856 18.5419 4.3686 18.6035 4.3686 18.6766C2.91597 18.6766 1.46981 18.6766 0.00237386 18.6766C0.00237386 18.6326 0.00237681 18.5862 0.00237353 18.5397C0.00211136 14.8288 -0.00425184 11.118 0.00501455 7.40723C0.00810817 6.16836 0.211256 4.96109 0.765097 3.83835C1.65819 2.02788 3.1124 0.952896 5.09841 0.611229C6.19866 0.421944 7.28122 0.506065 8.32303 0.932346C8.97212 1.19794 9.52571 1.59723 9.95998 2.15358C9.97084 2.16749 9.98134 2.18167 9.97448 2.17263C10.2491 1.92217 10.5021 1.65519 10.791 1.43516C11.4721 0.916255 12.2632 0.659559 13.1051 0.565817C14.483 0.412376 15.7891 0.648148 16.99 1.35972C18.288 2.12881 19.1129 3.27359 19.5803 4.69123C19.8505 5.51079 19.9864 6.35571 19.9885 7.21642C19.9978 11.0021 19.9972 14.7879 20 18.5736C20 18.6042 19.9975 18.6347 19.9956 18.6772C18.5464 18.6772 17.1004 18.6772 15.6314 18.6772C15.6314 18.6236 15.6314 18.5641 15.6314 18.5047C15.6312 14.8469 15.6323 11.189 15.6292 7.53125C15.6287 7.02312 15.6035 6.51341 15.443 6.02637C15.3707 5.80688 15.2752 5.58634 15.1464 5.39585C14.8176 4.90931 14.3194 4.77266 13.765 4.81391C13.0105 4.87006 12.5592 5.28561 12.3454 6.09191C12.2268 6.53903 12.1865 6.99553 12.1864 7.45589C12.1851 11.1358 12.1854 14.8157 12.1852 18.4956C12.1852 18.5527 12.1852 18.6098 12.1852 18.6814Z" fill="#665CD1"/>
<path d="M16.3411 45.3871C18.2345 43.5335 19.1378 41.2609 19.1674 39.1387C19.1717 37.0907 18.8194 35.6325 18.0891 34.27C17.1494 32.5168 15.7807 31.1916 13.988 30.3095C12.2534 29.456 10.4176 29.1817 8.50385 29.4436C6.40182 29.7313 4.60068 30.6298 3.12768 32.1453C1.46799 33.853 0.614023 35.9138 0.510453 38.2757C0.436977 39.9514 0.783111 41.5463 1.56498 43.0382C2.50443 44.8307 3.88528 46.1887 5.71453 47.0767C7.56918 47.9769 9.52449 48.2176 11.5524 47.8492C13.3995 47.5137 15.0052 46.6948 16.3411 45.3871Z" fill="#FEFEFE"/>
<path d="M20 39.1714C19.9682 41.4452 19.0004 43.88 16.9717 45.8661C15.5404 47.2672 13.82 48.1446 11.841 48.5041C9.66822 48.8988 7.57325 48.6409 5.58612 47.6763C3.62621 46.7249 2.14674 45.2699 1.14018 43.3493C0.302461 41.7509 -0.0683971 40.0421 0.0103272 38.2467C0.121296 35.7161 1.03626 33.5081 2.8145 31.6785C4.39271 30.0546 6.32251 29.092 8.57468 28.7838C10.6252 28.5032 12.5921 28.797 14.4505 29.7115C16.3713 30.6566 17.8378 32.0764 18.8446 33.9549C19.6271 35.4147 20.0045 36.9771 20 39.1714ZM9.83981 44.6378C9.87177 44.5506 9.88984 44.5071 9.9038 44.4623C10.3434 43.0524 10.7836 41.6427 11.2199 40.2317C11.2502 40.1339 11.2959 40.0823 11.3978 40.0516C12.2999 39.779 13.2001 39.5004 14.1007 39.2231C14.6708 39.0476 15.2406 38.8712 15.8365 38.6871C15.7632 38.6591 15.7154 38.6377 15.6657 38.6224C14.2453 38.1848 12.8251 37.7463 11.403 37.314C11.2944 37.281 11.2499 37.2265 11.2185 37.1249C10.7819 35.7141 10.3412 34.3046 9.90113 32.8948C9.88771 32.8518 9.86959 32.8103 9.84233 32.7381C9.81661 32.8094 9.80231 32.8447 9.79098 32.881C9.35069 34.2908 8.90962 35.7004 8.47267 37.1113C8.43818 37.2226 8.38708 37.2823 8.26802 37.3185C6.92453 37.7261 5.5833 38.1411 4.24157 38.5544C4.11782 38.5925 3.99473 38.6327 3.84168 38.6814C3.91526 38.7064 3.95565 38.7214 3.99676 38.734C5.41272 39.1694 6.82822 39.6063 8.2457 40.0368C8.37739 40.0768 8.43952 40.1408 8.47891 40.2721C8.68696 40.9655 8.90659 41.6554 9.12262 42.3464C9.35723 43.0968 9.5923 43.847 9.83981 44.6378Z" fill="#665CD1"/>
<path d="M20 68.4268C19.9519 71.4711 18.9735 73.9233 16.9161 75.9133C15.469 77.3129 13.7348 78.1848 11.742 78.5216C9.31253 78.9322 7.00743 78.5625 4.88755 77.2982C2.40539 75.8179 0.864397 73.6382 0.251969 70.8325C-0.254537 68.5121 -0.0070366 66.2546 1.0818 64.135C2.57696 61.2245 4.96339 59.421 8.20704 58.8545C11.4468 58.2887 14.339 59.1121 16.7834 61.3176C18.511 62.8764 19.5294 64.8366 19.8749 67.1318C19.9495 67.6274 19.9724 68.1307 20 68.4268ZM10.2216 63.2976C9.1797 63.3022 8.39356 63.4816 7.6647 63.8695C5.38775 65.0813 4.27465 67.5767 4.89061 70.0684C5.53193 72.6628 8.06851 74.3859 10.709 74.0208C13.0918 73.6913 15.0414 71.6461 15.2578 69.2511C15.3773 67.9289 15.0662 66.713 14.3014 65.6286C13.2609 64.1533 11.8321 63.3579 10.2216 63.2976Z" fill="#665CD1"/>
<path d="M12.1872 92.4628C12.1872 92.5256 12.1872 92.5827 12.1872 92.6399C12.187 95.077 12.185 97.5142 12.1882 99.9513C12.189 100.514 12.2418 101.073 12.4591 101.601C12.8515 102.555 14.0904 102.886 14.8924 102.251C15.2505 101.967 15.4194 101.567 15.4983 101.136C15.5678 100.757 15.6209 100.369 15.6218 99.9845C15.6304 96.2865 15.6265 92.5885 15.6261 88.8905C15.6261 88.8242 15.6261 88.7579 15.6261 88.6816C17.0827 88.6816 18.5287 88.6816 19.9981 88.6816C19.9981 88.7237 19.9981 88.7702 19.9981 88.8167C19.9978 92.5682 20.0049 96.3197 19.9935 100.071C19.9895 101.388 19.7336 102.657 19.0865 103.821C18.1782 105.455 16.7847 106.42 14.9521 106.746C13.8526 106.942 12.77 106.865 11.7238 106.45C11.0658 106.189 10.5051 105.79 10.0594 105.236C10.0431 105.216 10.026 105.196 10.0063 105.173C9.87266 105.317 9.74936 105.463 9.61255 105.595C8.96362 106.221 8.17597 106.581 7.29882 106.733C5.55185 107.035 3.93008 106.72 2.49114 105.654C1.37047 104.823 0.697306 103.685 0.323086 102.358C0.0981325 101.56 0.00232825 100.743 0.00174299 99.9162C-0.000851848 96.2316 0.00028341 92.5469 6.48111e-05 88.8623C6.48111e-05 88.8052 6.48111e-05 88.7481 6.48111e-05 88.6819C1.45989 88.6819 2.90941 88.6819 4.37578 88.6819C4.37578 88.7423 4.37579 88.7988 4.37579 88.8552C4.37553 92.5666 4.37465 96.278 4.37577 99.9894C4.37592 100.495 4.42764 100.994 4.59512 101.475C4.93963 102.465 6.02962 102.879 6.92211 102.358C7.32115 102.124 7.51853 101.745 7.64168 101.32C7.76893 100.88 7.81114 100.429 7.81122 99.9726C7.81162 97.5311 7.81117 95.0895 7.81101 92.6479C7.811 92.5902 7.811 92.5326 7.811 92.4628C9.26794 92.4628 10.7172 92.4628 12.1872 92.4628Z" fill="#665CD1"/>
</svg>
