<svg width="21" height="21" viewBox="0 0 21 21" fill="none" xmlns="http://www.w3.org/2000/svg">
<path d="M6.61859 11.5372L4.18337 9.98747C4.14332 9.96198 4.14905 9.90182 4.1932 9.88436L14.571 5.77884C14.6135 5.76203 14.6579 5.79851 14.6496 5.84343L13.0543 14.5036C13.0474 14.541 13.0071 14.5618 12.9726 14.5458L9.82175 13.0829C9.79962 13.0727 9.77342 13.0773 9.75616 13.0946L8.37252 14.4782C8.33589 14.5148 8.27327 14.4889 8.27327 14.4371V12.2766C8.27327 12.2608 8.27972 12.2457 8.29114 12.2347L10.9304 9.70105C10.9777 9.65563 10.9253 9.57884 10.8657 9.60632L6.67417 11.5409C6.65621 11.5492 6.63527 11.5478 6.61859 11.5372Z" stroke="#665CD1" stroke-width="1.33333" stroke-linecap="round"/>
<circle cx="10.25" cy="10.2754" r="9.33333" stroke="#665CD1" stroke-width="1.33333"/>
</svg>
