<svg width="20" height="21" viewBox="0 0 20 21" fill="none" xmlns="http://www.w3.org/2000/svg">
<rect y="0.665039" width="20" height="20" rx="10" fill="#F1F0FF"/>
<path d="M9.679 14.775C9.14367 14.775 8.63033 14.698 8.139 14.544C7.64767 14.3827 7.24433 14.1627 6.929 13.884L7.391 12.817C7.73567 13.081 8.09133 13.2754 8.458 13.4C8.832 13.5247 9.22433 13.587 9.635 13.587C10.1337 13.587 10.5113 13.488 10.768 13.29C11.0247 13.092 11.153 12.8024 11.153 12.421C11.153 12.0544 11.0247 11.7794 10.768 11.596C10.5187 11.4054 10.152 11.31 9.668 11.31H8.414V10.177H9.547C9.965 10.177 10.2987 10.0744 10.548 9.86904C10.7973 9.66371 10.922 9.38137 10.922 9.02204C10.922 8.68471 10.8047 8.42804 10.57 8.25204C10.3427 8.07604 10.0127 7.98804 9.58 7.98804C8.80267 7.98804 8.117 8.25204 7.523 8.78004L7.061 7.72404C7.37633 7.43071 7.765 7.20337 8.227 7.04204C8.69633 6.88071 9.18767 6.80004 9.701 6.80004C10.5077 6.80004 11.1383 6.98337 11.593 7.35004C12.055 7.70937 12.286 8.21171 12.286 8.85704C12.286 9.31904 12.154 9.71871 11.89 10.056C11.6333 10.386 11.2777 10.606 10.823 10.716V10.584C11.3583 10.672 11.7727 10.892 12.066 11.244C12.3667 11.5887 12.517 12.0214 12.517 12.542C12.517 13.2314 12.264 13.7777 11.758 14.181C11.252 14.577 10.559 14.775 9.679 14.775Z" fill="#665CD1"/>
</svg>
