<svg width="20" height="21" viewBox="0 0 20 21" fill="none" xmlns="http://www.w3.org/2000/svg">
<rect y="0.665039" width="20" height="20" rx="10" fill="#F1F0FF"/>
<path d="M7.358 14.665V13.62L9.932 10.936C10.2547 10.5987 10.493 10.287 10.647 10.001C10.801 9.71504 10.878 9.42171 10.878 9.12104C10.878 8.74704 10.7607 8.46471 10.526 8.27404C10.2913 8.08337 9.95033 7.98804 9.503 7.98804C9.14367 7.98804 8.799 8.05404 8.469 8.18604C8.139 8.31071 7.81633 8.50871 7.501 8.78004L7.039 7.72404C7.35433 7.44537 7.743 7.22171 8.205 7.05304C8.67433 6.88437 9.16567 6.80004 9.679 6.80004C10.515 6.80004 11.1567 6.98704 11.604 7.36104C12.0513 7.73504 12.275 8.27037 12.275 8.96704C12.275 9.45104 12.1613 9.91304 11.934 10.353C11.7067 10.7857 11.3547 11.2404 10.878 11.717L8.733 13.862V13.488H12.583V14.665H7.358Z" fill="#665CD1"/>
</svg>
