<svg width="120" height="120" viewBox="0 0 120 120" fill="none" xmlns="http://www.w3.org/2000/svg">
<path d="M12.8003 29.9984C12.8003 24.5956 17.1801 20.2158 22.5829 20.2158H97.4173C102.82 20.2158 107.2 24.5956 107.2 29.9984V88.5839C107.2 93.9865 102.82 98.3665 97.4173 98.3665H22.5829C17.1801 98.3665 12.8003 93.9865 12.8003 88.5839V29.9984Z" fill="#FEFEFE"/>
<path fill-rule="evenodd" clip-rule="evenodd" d="M97.4173 24.1289H22.5829C19.3412 24.1289 16.7133 26.7567 16.7133 29.9984V88.5839C16.7133 91.8252 19.3412 94.4534 22.5829 94.4534H97.4173C100.659 94.4534 103.287 91.8252 103.287 88.5839V29.9984C103.287 26.7567 100.659 24.1289 97.4173 24.1289ZM22.5829 20.2158C17.1801 20.2158 12.8003 24.5956 12.8003 29.9984V88.5839C12.8003 93.9865 17.1801 98.3665 22.5829 98.3665H97.4173C102.82 98.3665 107.2 93.9865 107.2 88.5839V29.9984C107.2 24.5956 102.82 20.2158 97.4173 20.2158H22.5829Z" fill="#665CD1"/>
<path d="M58.3653 80.3369C59.3199 79.57 60.6798 79.57 61.6343 80.3369L64.4547 82.6045C64.8428 82.9163 65.312 83.1106 65.807 83.1648L69.405 83.5554C70.6226 83.6878 71.5839 84.6498 71.7163 85.8674L72.1076 89.4648C72.1611 89.9598 72.3554 90.4293 72.6678 90.8174L74.9348 93.6374C75.7024 94.5922 75.7024 95.9519 74.9348 96.9067L72.6678 99.7267C72.3554 100.115 72.1611 100.584 72.1076 101.079L71.7163 104.677C71.5839 105.895 70.6226 106.856 69.405 106.989L65.807 107.38C65.312 107.433 64.8428 107.628 64.4547 107.94L61.6343 110.207C60.6798 110.975 59.3199 110.975 58.3653 110.207L55.545 107.94C55.1569 107.628 54.6875 107.433 54.1924 107.38L50.5949 106.989C49.3773 106.856 48.4157 105.895 48.2834 104.677L47.8923 101.079C47.8385 100.584 47.6441 100.115 47.332 99.7267L45.0648 96.9067C44.2973 95.9519 44.2973 94.5922 45.0648 93.6374L47.332 90.8174C47.6441 90.4293 47.8385 89.9598 47.8923 89.4648L48.2834 85.8674C48.4157 84.6498 49.3773 83.6878 50.5949 83.5554L54.1924 83.1648C54.6875 83.1106 55.1569 82.9163 55.545 82.6045L58.3653 80.3369Z" fill="#FEFEFE"/>
<path fill-rule="evenodd" clip-rule="evenodd" d="M66.6092 79.3149L64.0861 77.2867C61.6998 75.368 58.3 75.368 55.9137 77.2867L53.3905 79.3149L50.1721 79.6652C47.1281 79.9958 44.7242 82.3997 44.3933 85.4434L44.0435 88.6619L42.0151 91.1852C40.0966 93.5715 40.0966 96.9712 42.0151 99.3576L44.0435 101.881L44.3933 105.099C44.7242 108.143 47.1281 110.547 50.1721 110.878L53.3905 111.228L55.9137 113.256C58.3 115.175 61.6998 115.175 64.0861 113.256L66.6092 111.228L69.8277 110.878C72.8714 110.547 75.2759 108.143 75.6066 105.099L75.9562 101.881L77.9844 99.3576C79.9031 96.9712 79.9031 93.5715 77.9844 91.1852L75.9562 88.6619L75.6066 85.4434C75.2759 82.3997 72.8714 79.9958 69.8277 79.6652L66.6092 79.3149ZM61.6344 80.3362C60.6798 79.5693 59.32 79.5693 58.3654 80.3362L55.5451 82.6039C55.157 82.9156 54.6876 83.1099 54.1925 83.1641L50.5949 83.5547C49.3774 83.6871 48.4158 84.6491 48.2834 85.8667L47.8924 89.4641C47.8386 89.9591 47.6442 90.4286 47.3321 90.8167L45.0648 93.6367C44.2974 94.5915 44.2974 95.9512 45.0648 96.906L47.3321 99.726C47.6442 100.115 47.8386 100.584 47.8924 101.079L48.2834 104.677C48.4158 105.894 49.3774 106.856 50.5949 106.988L54.1925 107.379C54.6876 107.433 55.157 107.627 55.5451 107.94L58.3654 110.206C59.32 110.974 60.6798 110.974 61.6344 110.206L64.4547 107.94C64.8428 107.627 65.312 107.433 65.807 107.379L69.4051 106.988C70.6227 106.856 71.584 105.894 71.7164 104.677L72.1077 101.079C72.1611 100.584 72.3555 100.115 72.6679 99.726L74.9348 96.906C75.7025 95.9512 75.7025 94.5915 74.9348 93.6367L72.6679 90.8167C72.3555 90.4286 72.1611 89.9591 72.1077 89.4641L71.7164 85.8667C71.584 84.6491 70.6227 83.6871 69.4051 83.5547L65.807 83.1641C65.312 83.1099 64.8428 82.9156 64.4547 82.6039L61.6344 80.3362Z" fill="#665CD1"/>
<path fill-rule="evenodd" clip-rule="evenodd" d="M67.7378 89.8563C68.5167 90.6052 68.5409 91.8438 67.792 92.6227L59.5185 101.227C58.3194 102.474 56.3239 102.474 55.1248 101.227L52.2081 98.1936C51.4592 97.4147 51.4835 96.1762 52.2625 95.4273C53.0413 94.6785 54.2797 94.7028 55.0286 95.4817L57.3216 97.8665L64.9713 89.9105C65.7202 89.1315 66.9589 89.1072 67.7378 89.8563Z" fill="#665CD1"/>
<path fill-rule="evenodd" clip-rule="evenodd" d="M26.3239 65.0948H50.2125C50.0312 58.6539 44.753 53.4883 38.2682 53.4883C31.7835 53.4883 26.5053 58.6539 26.3239 65.0948Z" fill="#FEFEFE"/>
<path fill-rule="evenodd" clip-rule="evenodd" d="M26.2174 69.008C24.0714 69.008 22.349 67.2363 22.4094 65.0912L22.4124 64.9846C22.6531 56.4323 29.6592 49.5752 38.2682 49.5752C46.8772 49.5752 53.8832 56.4323 54.124 64.9846L54.127 65.0912C54.1874 67.2363 52.4649 69.008 50.319 69.008H26.2174ZM50.2125 65.0947C50.1738 63.7196 49.9027 62.4027 49.4373 61.1817C47.7224 56.6836 43.3685 53.4882 38.2682 53.4882C33.1679 53.4882 28.814 56.6836 27.0991 61.1817C26.6336 62.4027 26.3626 63.7196 26.3238 65.0947H50.2125Z" fill="#665CD1"/>
<path d="M64.3967 36.5246C64.1501 35.7288 63.0237 35.7288 62.7771 36.5246L62.2531 38.2149C62.1703 38.4819 61.9613 38.691 61.6942 38.7737L60.0039 39.2976C59.2082 39.5443 59.2082 40.6706 60.0039 40.9172L61.6943 41.4412C61.9613 41.5239 62.1703 41.733 62.2531 42L62.7771 43.6904C63.0237 44.4862 64.1501 44.4861 64.3967 43.6904L64.9206 42C65.0033 41.733 65.2124 41.5239 65.4796 41.4412L67.17 40.9172C67.9657 40.6706 67.9657 39.5443 67.17 39.2976L65.4796 38.7737C65.2124 38.691 65.0033 38.4819 64.9205 38.2149L64.3967 36.5246Z" fill="#665CD1"/>
<path d="M74.1796 36.5246C73.9324 35.7288 72.8061 35.7288 72.5596 36.5246L72.0359 38.2149C71.9531 38.4819 71.7437 38.691 71.477 38.7737L69.7866 39.2976C68.9909 39.5443 68.9909 40.6706 69.7866 40.9172L71.477 41.4412C71.7437 41.5239 71.9531 41.733 72.0359 42L72.5596 43.6904C72.8061 44.4862 73.9324 44.4861 74.1796 43.6904L74.7033 42C74.7861 41.733 74.9948 41.5239 75.2622 41.4412L76.9526 40.9172C77.7483 40.6706 77.7483 39.5443 76.9526 39.2976L75.2622 38.7737C74.9948 38.691 74.7861 38.4819 74.7033 38.2149L74.1796 36.5246Z" fill="#665CD1"/>
<path d="M83.9622 36.5246C83.715 35.7288 82.5887 35.7288 82.3422 36.5246L81.8185 38.2149C81.7357 38.4819 81.5263 38.691 81.2596 38.7737L79.5692 39.2976C78.7735 39.5443 78.7735 40.6706 79.5692 40.9172L81.2596 41.4412C81.5263 41.5239 81.7357 41.733 81.8185 42L82.3422 43.6904C82.5887 44.4862 83.715 44.4861 83.9622 43.6904L84.4859 42C84.5687 41.733 84.7774 41.5239 85.0448 41.4412L86.7352 40.9172C87.5309 40.6706 87.5309 39.5443 86.7352 39.2976L85.0448 38.7737C84.7774 38.691 84.5687 38.4819 84.4859 38.2149L83.9622 36.5246Z" fill="#665CD1"/>
<path d="M93.7449 36.5246C93.4977 35.7288 92.3714 35.7288 92.1248 36.5246L91.6012 38.2149C91.5183 38.4819 91.309 38.691 91.0422 38.7737L89.3518 39.2976C88.5562 39.5443 88.5562 40.6706 89.3518 40.9172L91.0422 41.4412C91.309 41.5239 91.5183 41.733 91.6012 42L92.1248 43.6904C92.3714 44.4862 93.4977 44.4861 93.7449 43.6904L94.2685 42C94.3514 41.733 94.5601 41.5239 94.8275 41.4412L96.5179 40.9172C97.3135 40.6706 97.3135 39.5443 96.5179 39.2976L94.8275 38.7737C94.5601 38.691 94.3514 38.4819 94.2685 38.2149L93.7449 36.5246Z" fill="#665CD1"/>
<path d="M60.0001 50.582C60.0001 49.3 61.0394 48.2607 62.3213 48.2607H80.1177C81.3998 48.2607 82.4394 49.3 82.4394 50.582C82.4394 51.8641 81.3998 52.9033 80.1177 52.9033H62.3213C61.0394 52.9033 60.0001 51.8641 60.0001 50.582Z" fill="#665CD1"/>
<path d="M60.0001 59.6732C60.0001 58.4126 61.022 57.3906 62.2827 57.3906H92.9348C94.1955 57.3906 95.2175 58.4126 95.2175 59.6732C95.2175 60.9339 94.1955 61.9558 92.9348 61.9558H62.2827C61.022 61.9558 60.0001 60.9339 60.0001 59.6732Z" fill="#665CD1"/>
<path d="M60.0001 66.8471C60.0001 65.5864 61.022 64.5645 62.2827 64.5645H92.9348C94.1955 64.5645 95.2175 65.5864 95.2175 66.8471C95.2175 68.1077 94.1955 69.1297 92.9348 69.1297H62.2827C61.022 69.1297 60.0001 68.1077 60.0001 66.8471Z" fill="#665CD1"/>
<path d="M42.3029 44.3024C42.3029 46.4391 40.5708 48.1712 38.4341 48.1712C36.2974 48.1712 34.5652 46.4391 34.5652 44.3024C34.5652 42.1657 36.2974 40.4336 38.4341 40.4336C40.5708 40.4336 42.3029 42.1657 42.3029 44.3024Z" fill="#FEFEFE"/>
<path fill-rule="evenodd" clip-rule="evenodd" d="M46.216 44.3024C46.216 48.6002 42.7319 52.0842 38.4341 52.0842C34.1363 52.0842 30.6522 48.6002 30.6522 44.3024C30.6522 40.0045 34.1363 36.5205 38.4341 36.5205C42.7319 36.5205 46.216 40.0045 46.216 44.3024ZM38.4341 48.1712C40.5708 48.1712 42.3029 46.4391 42.3029 44.3024C42.3029 42.1657 40.5708 40.4336 38.4341 40.4336C36.2974 40.4336 34.5653 42.1657 34.5653 44.3024C34.5653 46.4391 36.2974 48.1712 38.4341 48.1712Z" fill="#665CD1"/>
</svg>
