<svg width="21" height="351" viewBox="0 0 21 351" fill="none" xmlns="http://www.w3.org/2000/svg">
<path d="M12.6852 18.6814C11.2231 18.6814 9.77647 18.6814 8.31615 18.6814C8.31615 18.6181 8.31615 18.5619 8.31615 18.5057C8.31594 14.8302 8.31644 11.1548 8.31472 7.47929C8.31447 6.94332 8.2724 6.41087 8.09463 5.89987C7.92059 5.3996 7.62578 5.00993 7.08479 4.86828C6.73123 4.7757 6.37555 4.77789 6.02701 4.89079C5.50703 5.05922 5.23926 5.46073 5.07712 5.95141C4.93021 6.39599 4.87951 6.85719 4.87876 7.32168C4.87273 11.0412 4.87138 14.7607 4.86861 18.4802C4.86856 18.5419 4.8686 18.6035 4.8686 18.6766C3.41597 18.6766 1.96981 18.6766 0.502374 18.6766C0.502374 18.6326 0.502377 18.5862 0.502374 18.5397C0.502111 14.8288 0.495748 11.118 0.505015 7.40723C0.508108 6.16836 0.711256 4.96109 1.2651 3.83835C2.15819 2.02788 3.6124 0.952896 5.59841 0.611229C6.69866 0.421944 7.78122 0.506065 8.82303 0.932346C9.47212 1.19794 10.0257 1.59723 10.46 2.15358C10.4708 2.16749 10.4813 2.18167 10.4745 2.17263C10.7491 1.92217 11.0021 1.65519 11.291 1.43516C11.9721 0.916255 12.7632 0.659559 13.6051 0.565817C14.983 0.412376 16.2891 0.648148 17.49 1.35972C18.788 2.12881 19.6129 3.27359 20.0803 4.69123C20.3505 5.51079 20.4864 6.35571 20.4885 7.21642C20.4978 11.0021 20.4972 14.7879 20.5 18.5736C20.5 18.6042 20.4975 18.6347 20.4956 18.6772C19.0464 18.6772 17.6004 18.6772 16.1314 18.6772C16.1314 18.6236 16.1314 18.5641 16.1314 18.5047C16.1312 14.8469 16.1323 11.189 16.1292 7.53125C16.1287 7.02312 16.1035 6.51341 15.943 6.02637C15.8707 5.80688 15.7752 5.58634 15.6464 5.39585C15.3176 4.90931 14.8194 4.77266 14.265 4.81391C13.5105 4.87006 13.0592 5.28561 12.8454 6.09191C12.7268 6.53903 12.6865 6.99553 12.6864 7.45589C12.6851 11.1358 12.6854 14.8157 12.6852 18.4956C12.6852 18.5527 12.6852 18.6098 12.6852 18.6814Z" fill="#665CD1"/>
<path d="M16.8411 46.3871C18.7345 44.5335 19.6378 42.2609 19.6674 40.1387C19.6717 38.0907 19.3194 36.6325 18.5891 35.27C17.6494 33.5168 16.2807 32.1916 14.488 31.3095C12.7534 30.456 10.9176 30.1817 9.00385 30.4436C6.90182 30.7313 5.10068 31.6298 3.62768 33.1453C1.96799 34.853 1.11402 36.9138 1.01045 39.2757C0.936977 40.9514 1.28311 42.5463 2.06498 44.0382C3.00443 45.8307 4.38528 47.1887 6.21453 48.0767C8.06918 48.9769 10.0245 49.2176 12.0524 48.8492C13.8995 48.5137 15.5052 47.6948 16.8411 46.3871Z" fill="#FEFEFE"/>
<path d="M20.5 40.1714C20.4682 42.4452 19.5004 44.88 17.4717 46.8661C16.0404 48.2672 14.32 49.1446 12.341 49.5041C10.1682 49.8988 8.07325 49.6409 6.08612 48.6763C4.12621 47.7249 2.64674 46.2699 1.64018 44.3493C0.802461 42.7509 0.431603 41.0421 0.510327 39.2467C0.621296 36.7161 1.53626 34.5081 3.3145 32.6785C4.89271 31.0546 6.82251 30.092 9.07468 29.7838C11.1252 29.5032 13.0921 29.797 14.9505 30.7115C16.8713 31.6566 18.3378 33.0764 19.3446 34.9549C20.1271 36.4147 20.5045 37.9771 20.5 40.1714ZM10.3398 45.6378C10.3718 45.5506 10.3898 45.5071 10.4038 45.4623C10.8434 44.0524 11.2836 42.6427 11.7199 41.2317C11.7502 41.1339 11.7959 41.0823 11.8978 41.0516C12.7999 40.779 13.7001 40.5004 14.6007 40.2231C15.1708 40.0476 15.7406 39.8712 16.3365 39.6871C16.2632 39.6591 16.2154 39.6377 16.1657 39.6224C14.7453 39.1848 13.3251 38.7463 11.903 38.314C11.7944 38.281 11.7499 38.2265 11.7185 38.1249C11.2819 36.7141 10.8412 35.3046 10.4011 33.8948C10.3877 33.8518 10.3696 33.8103 10.3423 33.7381C10.3166 33.8094 10.3023 33.8447 10.291 33.881C9.85069 35.2908 9.40962 36.7004 8.97267 38.1113C8.93818 38.2226 8.88708 38.2823 8.76802 38.3185C7.42453 38.7261 6.0833 39.1411 4.74157 39.5544C4.61782 39.5925 4.49473 39.6327 4.34168 39.6814C4.41526 39.7064 4.45565 39.7214 4.49676 39.734C5.91272 40.1694 7.32822 40.6063 8.7457 41.0368C8.87739 41.0768 8.93952 41.1408 8.97891 41.2721C9.18696 41.9655 9.40659 42.6554 9.62262 43.3464C9.85723 44.0968 10.0923 44.847 10.3398 45.6378Z" fill="#665CD1"/>
<path d="M20.5 70.4268C20.4519 73.4711 19.4735 75.9233 17.4161 77.9133C15.969 79.3129 14.2348 80.1848 12.242 80.5216C9.81253 80.9322 7.50743 80.5625 5.38755 79.2982C2.90539 77.8179 1.3644 75.6382 0.751969 72.8325C0.245463 70.5121 0.492963 68.2546 1.5818 66.135C3.07696 63.2245 5.46339 61.421 8.70704 60.8545C11.9468 60.2887 14.839 61.1121 17.2834 63.3176C19.011 64.8764 20.0294 66.8366 20.3749 69.1318C20.4495 69.6274 20.4724 70.1307 20.5 70.4268ZM10.7216 65.2976C9.6797 65.3022 8.89356 65.4816 8.1647 65.8695C5.88775 67.0813 4.77465 69.5767 5.39061 72.0684C6.03193 74.6628 8.56851 76.3859 11.209 76.0208C13.5918 75.6913 15.5414 73.6461 15.7578 71.2511C15.8773 69.9289 15.5662 68.713 14.8014 67.6286C13.7609 66.1533 12.3321 65.3579 10.7216 65.2976Z" fill="#665CD1"/>
<path d="M12.6872 95.4628C12.6872 95.5256 12.6872 95.5827 12.6872 95.6399C12.687 98.077 12.685 100.514 12.6882 102.951C12.689 103.514 12.7418 104.073 12.9591 104.601C13.3515 105.555 14.5904 105.886 15.3924 105.251C15.7505 104.967 15.9194 104.567 15.9983 104.136C16.0678 103.757 16.1209 103.369 16.1218 102.985C16.1304 99.2865 16.1265 95.5885 16.1261 91.8905C16.1261 91.8242 16.1261 91.7579 16.1261 91.6816C17.5827 91.6816 19.0287 91.6816 20.4981 91.6816C20.4981 91.7237 20.4981 91.7702 20.4981 91.8167C20.4978 95.5682 20.5049 99.3197 20.4935 103.071C20.4895 104.388 20.2336 105.657 19.5865 106.821C18.6782 108.455 17.2847 109.42 15.4521 109.746C14.3526 109.942 13.27 109.865 12.2238 109.45C11.5658 109.189 11.0051 108.79 10.5594 108.236C10.5431 108.216 10.526 108.196 10.5063 108.173C10.3727 108.317 10.2494 108.463 10.1125 108.595C9.46362 109.221 8.67597 109.581 7.79882 109.733C6.05185 110.035 4.43008 109.72 2.99114 108.654C1.87047 107.823 1.19731 106.685 0.823086 105.358C0.598132 104.56 0.502328 103.743 0.501743 102.916C0.499148 99.2316 0.500283 95.5469 0.500065 91.8623C0.500065 91.8052 0.500065 91.7481 0.500065 91.6819C1.95989 91.6819 3.40941 91.6819 4.87578 91.6819C4.87578 91.7423 4.87579 91.7988 4.87579 91.8552C4.87553 95.5666 4.87465 99.278 4.87577 102.989C4.87592 103.495 4.92764 103.994 5.09512 104.475C5.43963 105.465 6.52962 105.879 7.42211 105.358C7.82115 105.124 8.01853 104.745 8.14168 104.32C8.26893 103.88 8.31114 103.429 8.31122 102.973C8.31162 100.531 8.31117 98.0895 8.31101 95.6479C8.311 95.5902 8.311 95.5326 8.311 95.4628C9.76794 95.4628 11.2172 95.4628 12.6872 95.4628Z" fill="#665CD1"/>
<path d="M8.31283 135.234C8.31283 135.172 8.31282 135.115 8.31283 135.057C8.31295 132.62 8.31504 130.183 8.31177 127.746C8.31101 127.183 8.25821 126.624 8.04093 126.096C7.6485 125.142 6.40956 124.811 5.60759 125.446C5.24949 125.73 5.08057 126.131 5.00166 126.561C4.93218 126.94 4.87912 127.328 4.87822 127.713C4.86958 131.411 4.87354 135.109 4.87389 138.807C4.8739 138.873 4.87389 138.939 4.87389 139.016C3.41728 139.016 1.97125 139.016 0.501942 139.016C0.501942 138.974 0.501934 138.927 0.501934 138.881C0.502159 135.129 0.495136 131.378 0.506538 127.626C0.510536 126.309 0.766401 125.04 1.41345 123.876C2.3218 122.242 3.71527 121.278 5.54795 120.951C6.64741 120.756 7.72999 120.833 8.77615 121.248C9.43424 121.509 9.99491 121.907 10.4406 122.461C10.4569 122.482 10.474 122.501 10.4937 122.525C10.6273 122.381 10.7506 122.234 10.8875 122.102C11.5364 121.476 12.324 121.116 13.2012 120.964C14.9481 120.663 16.5699 120.977 18.0089 122.044C19.1295 122.874 19.8027 124.012 20.1769 125.34C20.4019 126.137 20.4977 126.954 20.4983 127.781C20.5009 131.466 20.4997 135.15 20.4999 138.835C20.4999 138.892 20.4999 138.949 20.4999 139.015C19.0401 139.015 17.5906 139.015 16.1242 139.015C16.1242 138.955 16.1242 138.899 16.1242 138.842C16.1245 135.131 16.1253 131.419 16.1242 127.708C16.1241 127.203 16.0724 126.703 15.9049 126.222C15.5604 125.233 14.4704 124.818 13.5779 125.34C13.1788 125.573 12.9815 125.953 12.8583 126.378C12.7311 126.817 12.6889 127.269 12.6888 127.725C12.6884 130.166 12.6888 132.608 12.689 135.049C12.689 135.107 12.689 135.165 12.689 135.234C11.2321 135.234 9.78275 135.234 8.31283 135.234Z" fill="#665CD1"/>
<path d="M20.5 159.761C20.4519 162.805 19.4735 165.257 17.4161 167.247C15.969 168.647 14.2348 169.519 12.242 169.856C9.81253 170.266 7.50743 169.896 5.38755 168.632C2.90539 167.152 1.3644 164.972 0.751969 162.167C0.245463 159.846 0.492963 157.589 1.5818 155.469C3.07696 152.558 5.46339 150.755 8.70704 150.189C11.9468 149.623 14.839 150.446 17.2834 152.652C19.011 154.21 20.0294 156.171 20.3749 158.466C20.4495 158.961 20.4724 159.465 20.5 159.761ZM10.7216 154.632C9.6797 154.636 8.89356 154.816 8.1647 155.203C5.88775 156.415 4.77465 158.911 5.39061 161.402C6.03193 163.997 8.56851 165.72 11.209 165.355C13.5918 165.025 15.5414 162.98 15.7578 160.585C15.8773 159.263 15.5662 158.047 14.8014 156.963C13.7609 155.487 12.3321 154.692 10.7216 154.632Z" fill="#665CD1"/>
<path d="M16.8411 197.722C18.7345 195.868 19.6378 193.596 19.6674 191.474C19.6717 189.426 19.3194 187.967 18.5891 186.605C17.6494 184.852 16.2807 183.527 14.488 182.644C12.7534 181.791 10.9176 181.517 9.00385 181.779C6.90182 182.066 5.10068 182.965 3.62768 184.48C1.96799 186.188 1.11402 188.249 1.01045 190.611C0.936977 192.286 1.28311 193.881 2.06498 195.373C3.00443 197.166 4.38528 198.524 6.21453 199.412C8.06918 200.312 10.0245 200.553 12.0524 200.184C13.8995 199.849 15.5052 199.03 16.8411 197.722Z" fill="#EBEBEB" fill-opacity="0.5"/>
<path d="M20.5 191.506C20.4682 193.78 19.5004 196.215 17.4717 198.201C16.0404 199.602 14.32 200.48 12.341 200.839C10.1682 201.234 8.07325 200.976 6.08612 200.011C4.12621 199.06 2.64674 197.605 1.64018 195.684C0.802461 194.086 0.431603 192.377 0.510327 190.582C0.621296 188.051 1.53626 185.843 3.3145 184.013C4.89271 182.39 6.82251 181.427 9.07468 181.119C11.1252 180.838 13.0921 181.132 14.9505 182.046C16.8713 182.992 18.3378 184.411 19.3446 186.29C20.1271 187.75 20.5045 189.312 20.5 191.506ZM10.3398 196.973C10.3718 196.886 10.3898 196.842 10.4038 196.797C10.8434 195.387 11.2836 193.978 11.7199 192.567C11.7502 192.469 11.7959 192.417 11.8978 192.387C12.7999 192.114 13.7001 191.835 14.6007 191.558C15.1708 191.383 15.7406 191.206 16.3365 191.022C16.2632 190.994 16.2154 190.973 16.1657 190.957C14.7453 190.52 13.3251 190.081 11.903 189.649C11.7944 189.616 11.7499 189.562 11.7185 189.46C11.2819 188.049 10.8412 186.64 10.4011 185.23C10.3877 185.187 10.3696 185.145 10.3423 185.073C10.3166 185.144 10.3023 185.18 10.291 185.216C9.85069 186.626 9.40962 188.035 8.97267 189.446C8.93818 189.558 8.88708 189.617 8.76802 189.653C7.42453 190.061 6.0833 190.476 4.74157 190.889C4.61782 190.927 4.49473 190.968 4.34168 191.016C4.41526 191.041 4.45565 191.056 4.49676 191.069C5.91272 191.504 7.32822 191.941 8.7457 192.372C8.87739 192.412 8.93952 192.476 8.97891 192.607C9.18696 193.3 9.40659 193.99 9.62262 194.681C9.85723 195.432 10.0923 196.182 10.3398 196.973Z" fill="#665CD1"/>
<path d="M8.31484 212.017C9.77694 212.017 11.2235 212.017 12.6839 212.017C12.6839 212.08 12.6839 212.136 12.6839 212.193C12.6841 215.868 12.6836 219.543 12.6853 223.219C12.6855 223.755 12.7276 224.287 12.9054 224.798C13.0794 225.299 13.3742 225.688 13.9152 225.83C14.2688 225.923 14.6245 225.92 14.973 225.807C15.493 225.639 15.7607 225.238 15.9229 224.747C16.0698 224.302 16.1205 223.841 16.1212 223.377C16.1273 219.657 16.1286 215.938 16.1314 212.218C16.1314 212.156 16.1314 212.095 16.1314 212.022C17.584 212.022 19.0302 212.022 20.4976 212.022C20.4976 212.066 20.4976 212.112 20.4976 212.159C20.4979 215.869 20.5043 219.58 20.495 223.291C20.4919 224.53 20.2887 225.737 19.7349 226.86C18.8418 228.67 17.3876 229.745 15.4016 230.087C14.3013 230.276 13.2188 230.192 12.177 229.766C11.5279 229.5 10.9743 229.101 10.54 228.545C10.5292 228.531 10.5187 228.517 10.5255 228.526C10.2509 228.776 9.99787 229.043 9.70904 229.263C9.02785 229.782 8.23675 230.039 7.39494 230.132C6.01702 230.286 4.71087 230.05 3.50999 229.339C2.21204 228.569 1.38712 227.425 0.919685 226.007C0.649456 225.187 0.513613 224.343 0.511501 223.482C0.502207 219.696 0.502806 215.91 0.5 212.125C0.499977 212.094 0.502499 212.064 0.504354 212.021C1.95359 212.021 3.3996 212.021 4.86858 212.021C4.86858 212.075 4.86857 212.134 4.86858 212.194C4.86881 215.851 4.86771 219.509 4.87085 223.167C4.87129 223.675 4.89651 224.185 5.05698 224.672C5.1293 224.891 5.22485 225.112 5.3536 225.302C5.68244 225.789 6.18056 225.926 6.73495 225.884C7.48949 225.828 7.94076 225.413 8.1546 224.606C8.27318 224.159 8.31349 223.703 8.31365 223.242C8.31491 219.562 8.31464 215.883 8.31484 212.203C8.31484 212.146 8.31484 212.088 8.31484 212.017Z" fill="#665CD1"/>
<path d="M8.31283 255.568C8.31283 255.506 8.31282 255.449 8.31283 255.391C8.31295 252.954 8.31504 250.517 8.31177 248.08C8.31101 247.517 8.25821 246.958 8.04093 246.43C7.6485 245.476 6.40956 245.145 5.60759 245.78C5.24949 246.064 5.08057 246.464 5.00166 246.895C4.93218 247.274 4.87912 247.662 4.87822 248.047C4.86958 251.745 4.87354 255.443 4.87389 259.141C4.8739 259.207 4.87389 259.273 4.87389 259.35C3.41728 259.35 1.97125 259.35 0.501942 259.35C0.501942 259.308 0.501934 259.261 0.501934 259.215C0.502159 255.463 0.495136 251.712 0.506538 247.96C0.510536 246.643 0.766401 245.374 1.41345 244.21C2.3218 242.576 3.71527 241.612 5.54795 241.285C6.64741 241.09 7.72999 241.167 8.77615 241.582C9.43424 241.842 9.99491 242.241 10.4406 242.795C10.4569 242.816 10.474 242.835 10.4937 242.859C10.6273 242.715 10.7506 242.568 10.8875 242.436C11.5364 241.81 12.324 241.45 13.2012 241.298C14.9481 240.997 16.5699 241.311 18.0089 242.378C19.1295 243.208 19.8027 244.346 20.1769 245.674C20.4019 246.471 20.4977 247.288 20.4983 248.115C20.5009 251.8 20.4997 255.484 20.4999 259.169C20.4999 259.226 20.4999 259.283 20.4999 259.349C19.0401 259.349 17.5906 259.349 16.1242 259.349C16.1242 259.289 16.1242 259.232 16.1242 259.176C16.1245 255.465 16.1253 251.753 16.1242 248.042C16.1241 247.537 16.0724 247.037 15.9049 246.556C15.5604 245.567 14.4704 245.152 13.5779 245.674C13.1788 245.907 12.9815 246.287 12.8583 246.712C12.7311 247.151 12.6889 247.603 12.6888 248.059C12.6884 250.5 12.6888 252.942 12.689 255.383C12.689 255.441 12.689 255.499 12.689 255.568C11.2321 255.568 9.78275 255.568 8.31283 255.568Z" fill="#665CD1"/>
<path d="M20.5 280.095C20.4519 283.139 19.4735 285.591 17.4161 287.581C15.969 288.981 14.2348 289.853 12.242 290.19C9.81253 290.6 7.50743 290.23 5.38755 288.966C2.90539 287.486 1.3644 285.306 0.751969 282.5C0.245463 280.18 0.492963 277.923 1.5818 275.803C3.07696 272.892 5.46339 271.089 8.70704 270.523C11.9468 269.957 14.839 270.78 17.2834 272.986C19.011 274.544 20.0294 276.505 20.3749 278.8C20.4495 279.295 20.4724 279.799 20.5 280.095ZM10.7216 274.966C9.6797 274.97 8.89356 275.15 8.1647 275.537C5.88775 276.749 4.77465 279.245 5.39061 281.736C6.03193 284.331 8.56851 286.054 11.209 285.689C13.5918 285.359 15.5414 283.314 15.7578 280.919C15.8773 279.597 15.5662 278.381 14.8014 277.297C13.7609 275.821 12.3321 275.026 10.7216 274.966Z" fill="#665CD1"/>
<path d="M16.8411 318.055C18.7345 316.201 19.6378 313.929 19.6674 311.807C19.6717 309.759 19.3194 308.3 18.5891 306.938C17.6494 305.185 16.2807 303.86 14.488 302.977C12.7534 302.124 10.9176 301.85 9.00385 302.112C6.90182 302.399 5.10068 303.298 3.62768 304.813C1.96799 306.521 1.11402 308.582 1.01045 310.944C0.936977 312.619 1.28311 314.214 2.06498 315.706C3.00443 317.499 4.38528 318.857 6.21453 319.745C8.06918 320.645 10.0245 320.886 12.0524 320.517C13.8995 320.182 15.5052 319.363 16.8411 318.055Z" fill="#EBEBEB" fill-opacity="0.5"/>
<path d="M20.5 311.839C20.4682 314.113 19.5004 316.548 17.4717 318.534C16.0404 319.935 14.32 320.813 12.341 321.172C10.1682 321.567 8.07325 321.309 6.08612 320.344C4.12621 319.393 2.64674 317.938 1.64018 316.017C0.802461 314.419 0.431603 312.71 0.510327 310.915C0.621296 308.384 1.53626 306.176 3.3145 304.346C4.89271 302.723 6.82251 301.76 9.07468 301.452C11.1252 301.171 13.0921 301.465 14.9505 302.379C16.8713 303.325 18.3378 304.744 19.3446 306.623C20.1271 308.083 20.5045 309.645 20.5 311.839ZM10.3398 317.306C10.3718 317.219 10.3898 317.175 10.4038 317.13C10.8434 315.72 11.2836 314.311 11.7199 312.9C11.7502 312.802 11.7959 312.75 11.8978 312.72C12.7999 312.447 13.7001 312.168 14.6007 311.891C15.1708 311.716 15.7406 311.539 16.3365 311.355C16.2632 311.327 16.2154 311.306 16.1657 311.29C14.7453 310.853 13.3251 310.414 11.903 309.982C11.7944 309.949 11.7499 309.895 11.7185 309.793C11.2819 308.382 10.8412 306.973 10.4011 305.563C10.3877 305.52 10.3696 305.478 10.3423 305.406C10.3166 305.477 10.3023 305.513 10.291 305.549C9.85069 306.959 9.40962 308.368 8.97267 309.779C8.93818 309.891 8.88708 309.95 8.76802 309.986C7.42453 310.394 6.0833 310.809 4.74157 311.222C4.61782 311.26 4.49473 311.301 4.34168 311.349C4.41526 311.374 4.45565 311.389 4.49676 311.402C5.91272 311.837 7.32822 312.274 8.7457 312.705C8.87739 312.745 8.93952 312.809 8.97891 312.94C9.18696 313.633 9.40659 314.323 9.62262 315.014C9.85723 315.765 10.0923 316.515 10.3398 317.306Z" fill="#665CD1"/>
<path d="M8.31484 332.35C9.77694 332.35 11.2235 332.35 12.6839 332.35C12.6839 332.413 12.6839 332.469 12.6839 332.526C12.6841 336.201 12.6836 339.876 12.6853 343.552C12.6855 344.088 12.7276 344.62 12.9054 345.131C13.0794 345.632 13.3742 346.021 13.9152 346.163C14.2688 346.256 14.6245 346.253 14.973 346.14C15.493 345.972 15.7607 345.571 15.9229 345.08C16.0698 344.635 16.1205 344.174 16.1212 343.71C16.1273 339.99 16.1286 336.271 16.1314 332.551C16.1314 332.489 16.1314 332.428 16.1314 332.355C17.584 332.355 19.0302 332.355 20.4976 332.355C20.4976 332.399 20.4976 332.445 20.4976 332.492C20.4979 336.202 20.5043 339.913 20.495 343.624C20.4919 344.863 20.2887 346.07 19.7349 347.193C18.8418 349.003 17.3876 350.078 15.4016 350.42C14.3013 350.609 13.2188 350.525 12.177 350.099C11.5279 349.833 10.9743 349.434 10.54 348.878C10.5292 348.864 10.5187 348.85 10.5255 348.859C10.2509 349.109 9.99787 349.376 9.70904 349.596C9.02785 350.115 8.23675 350.372 7.39494 350.465C6.01702 350.619 4.71087 350.383 3.50999 349.672C2.21204 348.902 1.38712 347.758 0.919685 346.34C0.649456 345.52 0.513613 344.676 0.511501 343.815C0.502207 340.029 0.502806 336.243 0.5 332.458C0.499977 332.427 0.502499 332.397 0.504354 332.354C1.95359 332.354 3.3996 332.354 4.86858 332.354C4.86858 332.408 4.86857 332.467 4.86858 332.527C4.86881 336.184 4.86771 339.842 4.87085 343.5C4.87129 344.008 4.89651 344.518 5.05698 345.005C5.1293 345.224 5.22485 345.445 5.3536 345.635C5.68244 346.122 6.18056 346.259 6.73495 346.217C7.48949 346.161 7.94076 345.746 8.1546 344.939C8.27318 344.492 8.31349 344.036 8.31365 343.575C8.31491 339.895 8.31464 336.216 8.31484 332.536C8.31484 332.479 8.31484 332.421 8.31484 332.35Z" fill="#665CD1"/>
</svg>
