<svg width="21" height="21" viewBox="0 0 21 21" fill="none" xmlns="http://www.w3.org/2000/svg">
<g clip-path="url(#clip0_2498_4008)">
<g clip-path="url(#clip1_2498_4008)">
<path d="M19.2834 5.62507C19.1844 5.22957 18.9828 4.86721 18.6989 4.57457C18.415 4.28193 18.059 4.06939 17.6667 3.9584C16.2334 3.6084 10.5 3.6084 10.5 3.6084C10.5 3.6084 4.7667 3.6084 3.33336 3.99173C2.94107 4.10272 2.58501 4.31527 2.30115 4.6079C2.01729 4.90054 1.81569 5.26291 1.7167 5.6584C1.45437 7.11303 1.32606 8.58866 1.33336 10.0667C1.32401 11.5559 1.45234 13.0428 1.7167 14.5084C1.82583 14.8916 2.03195 15.2402 2.31515 15.5205C2.59835 15.8007 2.94905 16.0032 3.33336 16.1084C4.7667 16.4917 10.5 16.4917 10.5 16.4917C10.5 16.4917 16.2334 16.4917 17.6667 16.1084C18.059 15.9974 18.415 15.7849 18.6989 15.4922C18.9828 15.1996 19.1844 14.8372 19.2834 14.4417C19.5437 12.9981 19.672 11.5337 19.6667 10.0667C19.676 8.57753 19.5477 7.09065 19.2834 5.62507V5.62507Z" stroke="#665CD1" stroke-width="1.33333" stroke-linecap="round" stroke-linejoin="round"/>
<path d="M8.625 12.7918L13.4167 10.0668L8.625 7.3418V12.7918Z" stroke="#665CD1" stroke-width="1.33333" stroke-linecap="round" stroke-linejoin="round"/>
</g>
</g>
<defs>
<clipPath id="clip0_2498_4008">
<rect width="20" height="20" fill="white" transform="translate(0.5 0.275391)"/>
</clipPath>
<clipPath id="clip1_2498_4008">
<rect width="20" height="20" fill="white" transform="translate(0.5 0.275391)"/>
</clipPath>
</defs>
</svg>
